<svg aria-hidden="true" style="position: absolute; width: 0; height: 0; overflow: hidden;" version="1.1" xmlns="http://www.w3.org/2000/svg" xmlns:xlink="http://www.w3.org/1999/xlink">
<defs>
<symbol id="icon-stone" viewBox="0 0 32 32">
<path d="M29.202 11.903c-0.378-1.864-1.633-3.338-3.628-4.261-2.273-1.052-5.46-1.385-9.473-0.991-6.214 0.61-10.239 2.548-11.963 5.761-0.907 1.69-1.146 3.746-0.693 5.946 0.316 1.533 0.858 2.629 0.952 2.81 0.084 0.208 0.633 1.495 1.849 2.788 1.205 1.282 3.317 2.811 6.539 2.811 3.335 0 4.357-1.121 5.539-2.419 0.995-1.092 2.122-2.329 5.078-3.251 1.754-0.547 3.409-1.87 4.541-3.627 1.154-1.792 1.613-3.821 1.259-5.566zM23.12 20.191c-3.201 0.999-4.474 2.396-5.496 3.518-1.116 1.224-1.922 2.109-4.838 2.109-2.301 0-4.26-0.836-5.823-2.486-1.183-1.248-1.685-2.52-1.69-2.533-0.007-0.017-0.015-0.035-0.023-0.051-0.022-0.042-2.215-4.278-0.271-7.894 1.567-2.913 5.34-4.682 11.216-5.259 6.958-0.683 11.36 0.956 12.078 4.497 0.636 3.138-1.868 7.074-5.153 8.099z"></path>
<path d="M27.466 8.878c-0.173-0.197-0.472-0.216-0.669-0.044-0.017 0.015-1.698 1.474-3.601 1.922-2.188 0.515-3.815 2.615-3.883 2.704-0.159 0.208-0.119 0.505 0.088 0.665 0.086 0.066 0.187 0.098 0.288 0.098 0.142 0 0.283-0.064 0.377-0.186 0.015-0.019 1.493-1.921 3.347-2.357 2.139-0.503 3.935-2.067 4.010-2.133 0.197-0.173 0.216-0.472 0.043-0.669z"></path>
<path d="M22.985 11.277c-0.085-0.192-0.283-0.3-0.48-0.28-0.258-0.014-1.698-0.225-2.982-0.428-0.258-0.041-0.502 0.136-0.543 0.394s0.136 0.502 0.394 0.543c2.183 0.345 2.884 0.436 3.16 0.436 0.122 0 0.161-0.018 0.209-0.038 0.239-0.106 0.348-0.386 0.242-0.626z"></path>
<path d="M16.395 19.596c-0.031-0.26-0.267-0.446-0.527-0.415-1.371 0.163-2.381 0.562-3.002 1.187-0.462 0.464-0.555 0.899-0.573 1.042-0.024 0.119-0.257 1.105-1.306 1.303-1.653 0.313-2.684 2.252-2.727 2.335-0.121 0.232-0.032 0.519 0.201 0.64 0.070 0.037 0.145 0.054 0.219 0.054 0.171 0 0.336-0.093 0.421-0.255 0.234-0.448 1.062-1.653 2.063-1.842 1.75-0.331 2.054-2.013 2.066-2.084 0.004-0.021 0.004-0.018 0.005-0.032 0.021-0.095 0.302-1.115 2.746-1.405 0.26-0.031 0.446-0.267 0.415-0.527z"></path>
<path d="M14.602 23.628c-0.074-0.251-0.337-0.395-0.589-0.322-1.85 0.543-3.007 2.559-3.055 2.645-0.129 0.228-0.048 0.517 0.18 0.646 0.074 0.042 0.154 0.061 0.233 0.061 0.166 0 0.326-0.087 0.414-0.241 0.010-0.018 1.011-1.765 2.496-2.201 0.251-0.074 0.395-0.337 0.322-0.589z"></path>
<path d="M9.415 15.564c-0.019-0.261-0.246-0.458-0.507-0.439-1.196 0.085-1.336-0.063-2.005-0.774-0.132-0.14-0.281-0.298-0.457-0.474-1.219-1.219-2.148-1.116-2.25-1.1-0.259 0.040-0.436 0.283-0.396 0.541s0.283 0.436 0.541 0.396c0.005-0.001 0.574-0.027 1.434 0.834 0.166 0.166 0.31 0.319 0.437 0.454 0.683 0.725 1.081 1.090 2.245 1.090 0.158 0 0.33-0.007 0.519-0.020 0.261-0.019 0.458-0.246 0.439-0.507z"></path>
<path d="M13.341 10.573c-0.325-0.182-0.866-0.275-1.599 0.312-0.326 0.261-0.609 0.524-0.859 0.756-0.917 0.852-1.084 0.917-1.495 0.578-0.051-0.042-0.059-0.063-0.059-0.063-0.010-0.117 0.281-0.461 0.437-0.646 0.342-0.404 0.729-0.863 0.675-1.402-0.030-0.294-0.184-0.553-0.458-0.769-1.412-1.115-3.209 0.182-3.285 0.238-0.211 0.155-0.256 0.452-0.101 0.663s0.452 0.256 0.663 0.101c0.013-0.009 1.284-0.929 2.135-0.257 0.072 0.057 0.1 0.1 0.102 0.12 0.014 0.139-0.28 0.486-0.455 0.694-0.346 0.409-0.703 0.831-0.657 1.343 0.024 0.271 0.159 0.51 0.4 0.71 1.103 0.912 1.938 0.136 2.745-0.615 0.249-0.232 0.507-0.471 0.806-0.71 0.239-0.192 0.448-0.278 0.543-0.224 0.233 0.13 0.485 0.926 0.316 2.289-0.032 0.26 0.153 0.497 0.413 0.529 0.020 0.002 0.039 0.004 0.059 0.004 0.236-0 0.441-0.176 0.47-0.416 0.202-1.634-0.095-2.843-0.795-3.234z"></path>
<path d="M15.165 10.996c-1.394 0.058-1.872 1.446-1.892 1.505-0.083 0.249 0.052 0.517 0.3 0.6 0.050 0.017 0.1 0.024 0.15 0.024 0.199 0 0.384-0.126 0.45-0.325 0.003-0.008 0.283-0.826 1.030-0.857 0.262-0.011 0.465-0.232 0.454-0.494s-0.232-0.466-0.493-0.454z"></path>
<path d="M28.878 10.852c-0.068-0.16-0.22-0.271-0.394-0.288-0.285-0.026-0.429 0.189-0.476 0.259-0.556 0.835-1.624 1.408-3.006 1.614-2.848 0.424-4.004 2.039-4.052 2.107-0.003 0.004-0.006 0.009-0.009 0.013-0.435 0.671-1.857 2.355-3.189 2.101-0.257-0.049-0.506 0.12-0.555 0.377s0.12 0.506 0.377 0.555c0.156 0.030 0.31 0.044 0.462 0.044 1.971-0 3.558-2.342 3.695-2.549 0.077-0.104 1.043-1.356 3.412-1.709 1.648-0.245 2.945-0.963 3.652-2.022 0.119-0.133 0.158-0.327 0.083-0.502z"></path>
<path d="M24.693 12.637c-0.217-0.146-0.512-0.089-0.658 0.128s-0.089 0.512 0.128 0.659c0.027 0.018 0.652 0.451 0.348 1.322-0.086 0.247 0.044 0.518 0.292 0.604 0.052 0.018 0.105 0.027 0.156 0.027 0.196 0 0.38-0.123 0.448-0.318 0.434-1.242-0.277-2.127-0.714-2.421z"></path>
<path d="M29.31 13.645c-0.057-0.256-0.31-0.417-0.566-0.36-0.188 0.042-4.62 1.047-6.237 2.742-0.181 0.19-0.174 0.49 0.016 0.671 0.092 0.088 0.21 0.131 0.327 0.131 0.125 0 0.25-0.049 0.343-0.147 1.418-1.487 5.714-2.461 5.757-2.471 0.256-0.057 0.417-0.311 0.36-0.566z"></path>
<path d="M10.14 20.383c-0.168-0.201-0.467-0.227-0.668-0.059-0.778 0.652-1.331 0.683-1.336 0.683l0.010-0v0.949c0.088 0 0.887-0.025 1.936-0.905 0.201-0.168 0.227-0.468 0.059-0.668z"></path>
<path d="M12.474 17.965c-0.244-0.095-0.519 0.026-0.614 0.27-0.295 0.756-1.105 1.201-1.117 1.207-0.231 0.123-0.318 0.409-0.196 0.64 0.085 0.161 0.25 0.253 0.42 0.253 0.075 0 0.151-0.018 0.222-0.055 0.046-0.024 1.13-0.608 1.556-1.7 0.095-0.244-0.026-0.519-0.27-0.614z"></path>
<path d="M5.569 30.039c-0.175-1.228-2.539-1.912-2.563-1.919-1.81-0.513-2.586 0.631-2.918 1.681-0.212 0.671-0.035 1.288 0.488 1.693 0.431 0.334 1.079 0.497 1.782 0.497 0.832 0 1.74-0.229 2.452-0.676 0.714-0.448 0.806-0.941 0.759-1.276zM4.306 30.512c-1.056 0.662-2.586 0.668-3.149 0.232-0.139-0.108-0.284-0.28-0.165-0.656 0.284-0.897 0.714-1.149 1.185-1.149 0.186 0 0.379 0.040 0.571 0.094 0.79 0.224 1.834 0.806 1.882 1.14 0.009 0.062-0.088 0.191-0.323 0.338z"></path>
<path d="M3.29 28.345c-0.128-0.229-0.417-0.31-0.646-0.182-0.024 0.013-0.588 0.334-1.008 0.918-0.582 0.81-0.623 1.759-0.115 2.671 0.087 0.156 0.248 0.244 0.415 0.244 0.078 0 0.157-0.019 0.23-0.060 0.229-0.127 0.311-0.416 0.184-0.645-0.766-1.376 0.6-2.21 0.759-2.301 0.228-0.128 0.308-0.417 0.18-0.645z"></path>
<path d="M31.706 0.888c-0.212-0.31-0.635-0.687-1.439-0.726-0.222-0.011-0.443-0.045-0.657-0.079-0.5-0.079-1.017-0.16-1.513 0.081-0.526 0.256-0.904 0.821-1.188 1.777-0.491 1.653-0.526 2.632-0.114 3.274 0.262 0.41 0.704 0.663 1.311 0.75 0.066 0.010 0.131 0.014 0.197 0.014 0.834 0 1.653-0.734 2.211-1.377 0.633-0.73 1.205-1.662 1.423-2.317 0.114-0.344 0.091-0.928-0.232-1.398zM31.037 1.987c-0.369 1.111-1.906 3.045-2.727 3.045-0.023 0-0.046-0.002-0.068-0.005-0.436-0.063-0.578-0.214-0.648-0.323-0.237-0.371-0.164-1.186 0.225-2.493 0.198-0.664 0.431-1.066 0.694-1.194 0.097-0.047 0.212-0.065 0.342-0.065 0.174 0 0.377 0.032 0.608 0.069 0.228 0.036 0.486 0.077 0.759 0.090 0.333 0.016 0.569 0.122 0.701 0.315 0.144 0.21 0.14 0.483 0.114 0.562z"></path>
<path d="M31.358 2.589c-1.341-1.841-3.816-1.33-3.921-1.307-0.256 0.055-0.419 0.308-0.363 0.564s0.308 0.419 0.564 0.363c0.019-0.004 1.972-0.409 2.953 0.938 0.093 0.127 0.237 0.195 0.384 0.195 0.097 0 0.195-0.030 0.279-0.091 0.212-0.154 0.258-0.451 0.104-0.663z"></path>
<path d="M24.325 3.153c-0.774-0.127-1.508 0.399-1.635 1.174s0.399 1.508 1.174 1.635c0.078 0.013 0.155 0.019 0.232 0.019 0.684 0 1.289-0.496 1.404-1.192v-0c0.127-0.774-0.399-1.508-1.174-1.635zM24.562 4.634c-0.043 0.258-0.287 0.434-0.545 0.391s-0.434-0.287-0.391-0.545c0.038-0.232 0.24-0.397 0.468-0.397 0.025 0 0.051 0.002 0.077 0.006 0.258 0.042 0.433 0.287 0.391 0.545z"></path>
<path d="M10.007 28.012c-0.774-0.127-1.508 0.399-1.635 1.174-0.062 0.375 0.027 0.752 0.248 1.061s0.55 0.513 0.925 0.575c0.078 0.013 0.156 0.019 0.234 0.019 0.295 0 0.582-0.092 0.827-0.267 0.309-0.222 0.513-0.55 0.575-0.925 0.127-0.774-0.399-1.508-1.174-1.635zM10.244 29.494c-0.042 0.258-0.286 0.434-0.545 0.391s-0.434-0.287-0.391-0.545c0.038-0.232 0.24-0.398 0.468-0.398 0.025 0 0.051 0.002 0.077 0.006 0.258 0.042 0.434 0.287 0.391 0.545z"></path>
</symbol>
<symbol id="icon-paper" viewBox="0 0 32 32">
<path d="M27.267 5.8c0-0.4-0.133-0.667-0.4-0.933l-4-4c-0.4-0.4-0.8-0.533-1.2-0.4h-14.8c-0.933-0.133-1.867 0.667-2.133 1.733v27.333c0 1.2 0.933 2.133 2.133 2.133h18.133c1.2 0 2.133-0.933 2.133-2.133v-23.467l0.133-0.267c0 0.133 0 0.133 0 0zM25.933 5.8c0.133 0.133 0 0.4-0.133 0.4h-3.6c-0.4 0-0.667-0.267-0.667-0.667v-3.6c0-0.267 0.267-0.267 0.4-0.133l4 4zM26.067 29.533c0 0.533-0.4 0.933-0.933 0.933h-18.267c-0.533 0-0.933-0.4-0.933-0.933v-27.2c0.133-0.4 0.4-0.667 0.933-0.667h13.333v3.867c0 1.067 0.8 2 2 2h3.867v22z"></path>
</symbol>
<symbol id="icon-scissors" viewBox="0 0 32 32">
<path d="M22.312 18.070l-3.303-4.685c2.866-4.067 5.652-8.546 5.165-11.383-0.139-0.812-0.537-1.454-1.182-1.909-0.111-0.078-0.248-0.109-0.382-0.086s-0.253 0.098-0.331 0.209l-6.278 8.903-6.278-8.903c-0.078-0.111-0.197-0.186-0.331-0.209s-0.271 0.008-0.382 0.086c-0.649 0.458-1.048 1.105-1.184 1.925-0.483 2.89 2.41 7.461 5.167 11.368l-3.303 4.684c-2.739 0.092-4.939 2.349-4.939 5.11v3.707c0 2.819 2.294 5.113 5.113 5.113s5.113-2.294 5.113-5.113v-3.707c0-0.797-0.188-1.586-0.546-2.295 0.3-1.036 0.827-2.134 1.571-3.272 0.743 1.138 1.27 2.236 1.57 3.272-0.358 0.71-0.546 1.499-0.546 2.295v3.707c0 2.819 2.294 5.113 5.113 5.113s5.113-2.294 5.113-5.113v-3.707c-0-2.761-2.2-5.018-4.939-5.11zM22.78 1.282c0.197 0.245 0.324 0.541 0.385 0.894 0.192 1.116-0.281 2.776-1.406 4.934-0.967 1.857-2.264 3.798-3.377 5.387l-1.756-2.49 6.153-8.726zM13.391 20.8c-0.033 0.112-0.028 0.234 0.021 0.346 0.008 0.018 0.016 0.035 0.026 0.052 0.337 0.604 0.515 1.29 0.515 1.982v3.707c0 2.255-1.835 4.089-4.090 4.089s-4.089-1.835-4.089-4.089v-3.707c0-2.255 1.835-4.090 4.089-4.090 0.013 0 0.026 0.001 0.039 0.001l0.035 0.001c0.002 0 0.004 0 0.005 0h0.001c0.004 0 0.007 0 0.011 0 0.178 0 0.335-0.091 0.427-0.23l2.805-3.978 1.784 1.258c0.136 0.19 0.269 0.374 0.395 0.551 0 0 0 0 0 0 0.003 0.004 0.006 0.008 0.009 0.012-0.97 1.418-1.637 2.793-1.983 4.093zM16 15.618l-0.3-0.211c-0.112-0.156-1.531-2.128-1.618-2.251-1.123-1.582-2.312-3.328-3.281-5.022-1.52-2.659-2.182-4.66-1.968-5.946 0.060-0.358 0.187-0.658 0.387-0.906l9.003 12.768-2.224 1.568zM26.227 26.887h-0c0 2.255-1.835 4.089-4.089 4.089s-4.090-1.835-4.090-4.089v-3.707c0-0.694 0.179-1.381 0.517-1.986 0.065-0.116 0.082-0.252 0.048-0.381-0.36-1.361-1.072-2.805-2.117-4.294l2.318-1.634 2.806 3.98c0.091 0.136 0.246 0.226 0.421 0.228 0 0 0.001 0 0.001 0 0.008 0 0.016 0 0.024-0l0.033-0.001c0.013-0 0.026-0.001 0.038-0.001 2.255 0 4.089 1.835 4.089 4.090v3.707z"></path>
<path d="M22.138 20.744c-1.343 0-2.436 1.093-2.436 2.436v3.707c0 1.343 1.093 2.436 2.436 2.436s2.436-1.093 2.436-2.436v-3.707c0-1.343-1.093-2.436-2.436-2.436zM23.551 26.887c0 0.779-0.634 1.413-1.413 1.413s-1.413-0.634-1.413-1.413v-3.707c0-0.779 0.634-1.413 1.413-1.413s1.413 0.634 1.413 1.413v3.707z"></path>
<path d="M9.862 20.744c-1.343 0-2.436 1.093-2.436 2.436v3.707c0 1.343 1.093 2.436 2.436 2.436s2.436-1.093 2.436-2.436v-3.707c0-1.343-1.093-2.436-2.436-2.436zM11.275 26.887c0 0.779-0.634 1.413-1.413 1.413s-1.413-0.634-1.413-1.413v-3.707c0-0.779 0.634-1.413 1.413-1.413s1.413 0.634 1.413 1.413v3.707z"></path>
</symbol>
<symbol id="icon-search" viewBox="0 0 32 32">
<path fill="none" stroke="#fff" style="stroke: var(--color1, #fff)" stroke-linejoin="miter" stroke-linecap="butt" stroke-miterlimit="4" stroke-width="4" d="M24.087 13.043c0 6.099-4.944 11.043-11.043 11.043s-11.043-4.944-11.043-11.043c0-6.099 4.944-11.043 11.043-11.043s11.043 4.944 11.043 11.043z"></path>
<path fill="#fff" style="fill: var(--color1, #fff)" d="M28.586 31.414c0.781 0.781 2.047 0.781 2.828 0s0.781-2.047 0-2.828l-2.828 2.828zM22.936 20.108l-1.414-1.414-2.829 2.828 1.414 1.414 2.828-2.828zM31.414 28.586l-8.478-8.478-2.828 2.828 8.478 8.478 2.828-2.828z"></path>
</symbol>
<symbol id="icon-arrow-left" viewBox="0 0 32 32">
<path d="M13.333 29.333l-13.333-13.333 13.333-13.333 2.367 2.367-10.967 10.967 10.967 10.967-2.367 2.367z"></path>
</symbol>
<symbol id="icon-arrow-right" viewBox="0 0 32 32">
<path d="M10.7 29.333l-2.367-2.367 10.967-10.967-10.967-10.967 2.367-2.367 13.333 13.333-13.333 13.333z"></path>
</symbol>
</defs>
</svg>
