<svg aria-hidden="true" style="position: absolute; width: 0; height: 0; overflow: hidden;"
    version="1.1" xmlns="http://www.w3.org/2000/svg" xmlns:xlink="http://www.w3.org/1999/xlink">
    <defs>
        <symbol id="icon-stone" viewBox="0 0 32 32">
            <path
                d="M29.202 11.903c-0.378-1.864-1.633-3.338-3.628-4.261-2.273-1.052-5.46-1.385-9.473-0.991-6.214 0.61-10.239 2.548-11.963 5.761-0.907 1.69-1.146 3.746-0.693 5.946 0.316 1.533 0.858 2.629 0.952 2.81 0.084 0.208 0.633 1.495 1.849 2.788 1.205 1.282 3.317 2.811 6.539 2.811 3.335 0 4.357-1.121 5.539-2.419 0.995-1.092 2.122-2.329 5.078-3.251 1.754-0.547 3.409-1.87 4.541-3.627 1.154-1.792 1.613-3.821 1.259-5.566zM23.12 20.191c-3.201 0.999-4.474 2.396-5.496 3.518-1.116 1.224-1.922 2.109-4.838 2.109-2.301 0-4.26-0.836-5.823-2.486-1.183-1.248-1.685-2.52-1.69-2.533-0.007-0.017-0.015-0.035-0.023-0.051-0.022-0.042-2.215-4.278-0.271-7.894 1.567-2.913 5.34-4.682 11.216-5.259 6.958-0.683 11.36 0.956 12.078 4.497 0.636 3.138-1.868 7.074-5.153 8.099z"></path>
            <path
                d="M27.466 8.878c-0.173-0.197-0.472-0.216-0.669-0.044-0.017 0.015-1.698 1.474-3.601 1.922-2.188 0.515-3.815 2.615-3.883 2.704-0.159 0.208-0.119 0.505 0.088 0.665 0.086 0.066 0.187 0.098 0.288 0.098 0.142 0 0.283-0.064 0.377-0.186 0.015-0.019 1.493-1.921 3.347-2.357 2.139-0.503 3.935-2.067 4.010-2.133 0.197-0.173 0.216-0.472 0.043-0.669z"></path>
            <path
                d="M22.985 11.277c-0.085-0.192-0.283-0.3-0.48-0.28-0.258-0.014-1.698-0.225-2.982-0.428-0.258-0.041-0.502 0.136-0.543 0.394s0.136 0.502 0.394 0.543c2.183 0.345 2.884 0.436 3.16 0.436 0.122 0 0.161-0.018 0.209-0.038 0.239-0.106 0.348-0.386 0.242-0.626z"></path>
            <path
                d="M16.395 19.596c-0.031-0.26-0.267-0.446-0.527-0.415-1.371 0.163-2.381 0.562-3.002 1.187-0.462 0.464-0.555 0.899-0.573 1.042-0.024 0.119-0.257 1.105-1.306 1.303-1.653 0.313-2.684 2.252-2.727 2.335-0.121 0.232-0.032 0.519 0.201 0.64 0.070 0.037 0.145 0.054 0.219 0.054 0.171 0 0.336-0.093 0.421-0.255 0.234-0.448 1.062-1.653 2.063-1.842 1.75-0.331 2.054-2.013 2.066-2.084 0.004-0.021 0.004-0.018 0.005-0.032 0.021-0.095 0.302-1.115 2.746-1.405 0.26-0.031 0.446-0.267 0.415-0.527z"></path>
            <path
                d="M14.602 23.628c-0.074-0.251-0.337-0.395-0.589-0.322-1.85 0.543-3.007 2.559-3.055 2.645-0.129 0.228-0.048 0.517 0.18 0.646 0.074 0.042 0.154 0.061 0.233 0.061 0.166 0 0.326-0.087 0.414-0.241 0.010-0.018 1.011-1.765 2.496-2.201 0.251-0.074 0.395-0.337 0.322-0.589z"></path>
            <path
                d="M9.415 15.564c-0.019-0.261-0.246-0.458-0.507-0.439-1.196 0.085-1.336-0.063-2.005-0.774-0.132-0.14-0.281-0.298-0.457-0.474-1.219-1.219-2.148-1.116-2.25-1.1-0.259 0.040-0.436 0.283-0.396 0.541s0.283 0.436 0.541 0.396c0.005-0.001 0.574-0.027 1.434 0.834 0.166 0.166 0.31 0.319 0.437 0.454 0.683 0.725 1.081 1.090 2.245 1.090 0.158 0 0.33-0.007 0.519-0.020 0.261-0.019 0.458-0.246 0.439-0.507z"></path>
            <path
                d="M13.341 10.573c-0.325-0.182-0.866-0.275-1.599 0.312-0.326 0.261-0.609 0.524-0.859 0.756-0.917 0.852-1.084 0.917-1.495 0.578-0.051-0.042-0.059-0.063-0.059-0.063-0.010-0.117 0.281-0.461 0.437-0.646 0.342-0.404 0.729-0.863 0.675-1.402-0.030-0.294-0.184-0.553-0.458-0.769-1.412-1.115-3.209 0.182-3.285 0.238-0.211 0.155-0.256 0.452-0.101 0.663s0.452 0.256 0.663 0.101c0.013-0.009 1.284-0.929 2.135-0.257 0.072 0.057 0.1 0.1 0.102 0.12 0.014 0.139-0.28 0.486-0.455 0.694-0.346 0.409-0.703 0.831-0.657 1.343 0.024 0.271 0.159 0.51 0.4 0.71 1.103 0.912 1.938 0.136 2.745-0.615 0.249-0.232 0.507-0.471 0.806-0.71 0.239-0.192 0.448-0.278 0.543-0.224 0.233 0.13 0.485 0.926 0.316 2.289-0.032 0.26 0.153 0.497 0.413 0.529 0.020 0.002 0.039 0.004 0.059 0.004 0.236-0 0.441-0.176 0.47-0.416 0.202-1.634-0.095-2.843-0.795-3.234z"></path>
            <path
                d="M15.165 10.996c-1.394 0.058-1.872 1.446-1.892 1.505-0.083 0.249 0.052 0.517 0.3 0.6 0.050 0.017 0.1 0.024 0.15 0.024 0.199 0 0.384-0.126 0.45-0.325 0.003-0.008 0.283-0.826 1.030-0.857 0.262-0.011 0.465-0.232 0.454-0.494s-0.232-0.466-0.493-0.454z"></path>
            <path
                d="M28.878 10.852c-0.068-0.16-0.22-0.271-0.394-0.288-0.285-0.026-0.429 0.189-0.476 0.259-0.556 0.835-1.624 1.408-3.006 1.614-2.848 0.424-4.004 2.039-4.052 2.107-0.003 0.004-0.006 0.009-0.009 0.013-0.435 0.671-1.857 2.355-3.189 2.101-0.257-0.049-0.506 0.12-0.555 0.377s0.12 0.506 0.377 0.555c0.156 0.030 0.31 0.044 0.462 0.044 1.971-0 3.558-2.342 3.695-2.549 0.077-0.104 1.043-1.356 3.412-1.709 1.648-0.245 2.945-0.963 3.652-2.022 0.119-0.133 0.158-0.327 0.083-0.502z"></path>
            <path
                d="M24.693 12.637c-0.217-0.146-0.512-0.089-0.658 0.128s-0.089 0.512 0.128 0.659c0.027 0.018 0.652 0.451 0.348 1.322-0.086 0.247 0.044 0.518 0.292 0.604 0.052 0.018 0.105 0.027 0.156 0.027 0.196 0 0.38-0.123 0.448-0.318 0.434-1.242-0.277-2.127-0.714-2.421z"></path>
            <path
                d="M29.31 13.645c-0.057-0.256-0.31-0.417-0.566-0.36-0.188 0.042-4.62 1.047-6.237 2.742-0.181 0.19-0.174 0.49 0.016 0.671 0.092 0.088 0.21 0.131 0.327 0.131 0.125 0 0.25-0.049 0.343-0.147 1.418-1.487 5.714-2.461 5.757-2.471 0.256-0.057 0.417-0.311 0.36-0.566z"></path>
            <path
                d="M10.14 20.383c-0.168-0.201-0.467-0.227-0.668-0.059-0.778 0.652-1.331 0.683-1.336 0.683l0.010-0v0.949c0.088 0 0.887-0.025 1.936-0.905 0.201-0.168 0.227-0.468 0.059-0.668z"></path>
            <path
                d="M12.474 17.965c-0.244-0.095-0.519 0.026-0.614 0.27-0.295 0.756-1.105 1.201-1.117 1.207-0.231 0.123-0.318 0.409-0.196 0.64 0.085 0.161 0.25 0.253 0.42 0.253 0.075 0 0.151-0.018 0.222-0.055 0.046-0.024 1.13-0.608 1.556-1.7 0.095-0.244-0.026-0.519-0.27-0.614z"></path>
            <path
                d="M5.569 30.039c-0.175-1.228-2.539-1.912-2.563-1.919-1.81-0.513-2.586 0.631-2.918 1.681-0.212 0.671-0.035 1.288 0.488 1.693 0.431 0.334 1.079 0.497 1.782 0.497 0.832 0 1.74-0.229 2.452-0.676 0.714-0.448 0.806-0.941 0.759-1.276zM4.306 30.512c-1.056 0.662-2.586 0.668-3.149 0.232-0.139-0.108-0.284-0.28-0.165-0.656 0.284-0.897 0.714-1.149 1.185-1.149 0.186 0 0.379 0.040 0.571 0.094 0.79 0.224 1.834 0.806 1.882 1.14 0.009 0.062-0.088 0.191-0.323 0.338z"></path>
            <path
                d="M3.29 28.345c-0.128-0.229-0.417-0.31-0.646-0.182-0.024 0.013-0.588 0.334-1.008 0.918-0.582 0.81-0.623 1.759-0.115 2.671 0.087 0.156 0.248 0.244 0.415 0.244 0.078 0 0.157-0.019 0.23-0.060 0.229-0.127 0.311-0.416 0.184-0.645-0.766-1.376 0.6-2.21 0.759-2.301 0.228-0.128 0.308-0.417 0.18-0.645z"></path>
            <path
                d="M31.706 0.888c-0.212-0.31-0.635-0.687-1.439-0.726-0.222-0.011-0.443-0.045-0.657-0.079-0.5-0.079-1.017-0.16-1.513 0.081-0.526 0.256-0.904 0.821-1.188 1.777-0.491 1.653-0.526 2.632-0.114 3.274 0.262 0.41 0.704 0.663 1.311 0.75 0.066 0.010 0.131 0.014 0.197 0.014 0.834 0 1.653-0.734 2.211-1.377 0.633-0.73 1.205-1.662 1.423-2.317 0.114-0.344 0.091-0.928-0.232-1.398zM31.037 1.987c-0.369 1.111-1.906 3.045-2.727 3.045-0.023 0-0.046-0.002-0.068-0.005-0.436-0.063-0.578-0.214-0.648-0.323-0.237-0.371-0.164-1.186 0.225-2.493 0.198-0.664 0.431-1.066 0.694-1.194 0.097-0.047 0.212-0.065 0.342-0.065 0.174 0 0.377 0.032 0.608 0.069 0.228 0.036 0.486 0.077 0.759 0.090 0.333 0.016 0.569 0.122 0.701 0.315 0.144 0.21 0.14 0.483 0.114 0.562z"></path>
            <path
                d="M31.358 2.589c-1.341-1.841-3.816-1.33-3.921-1.307-0.256 0.055-0.419 0.308-0.363 0.564s0.308 0.419 0.564 0.363c0.019-0.004 1.972-0.409 2.953 0.938 0.093 0.127 0.237 0.195 0.384 0.195 0.097 0 0.195-0.030 0.279-0.091 0.212-0.154 0.258-0.451 0.104-0.663z"></path>
            <path
                d="M24.325 3.153c-0.774-0.127-1.508 0.399-1.635 1.174s0.399 1.508 1.174 1.635c0.078 0.013 0.155 0.019 0.232 0.019 0.684 0 1.289-0.496 1.404-1.192v-0c0.127-0.774-0.399-1.508-1.174-1.635zM24.562 4.634c-0.043 0.258-0.287 0.434-0.545 0.391s-0.434-0.287-0.391-0.545c0.038-0.232 0.24-0.397 0.468-0.397 0.025 0 0.051 0.002 0.077 0.006 0.258 0.042 0.433 0.287 0.391 0.545z"></path>
            <path
                d="M10.007 28.012c-0.774-0.127-1.508 0.399-1.635 1.174-0.062 0.375 0.027 0.752 0.248 1.061s0.55 0.513 0.925 0.575c0.078 0.013 0.156 0.019 0.234 0.019 0.295 0 0.582-0.092 0.827-0.267 0.309-0.222 0.513-0.55 0.575-0.925 0.127-0.774-0.399-1.508-1.174-1.635zM10.244 29.494c-0.042 0.258-0.286 0.434-0.545 0.391s-0.434-0.287-0.391-0.545c0.038-0.232 0.24-0.398 0.468-0.398 0.025 0 0.051 0.002 0.077 0.006 0.258 0.042 0.434 0.287 0.391 0.545z"></path>
        </symbol>
        <symbol id="icon-paper" viewBox="0 0 32 32">
            <path
                d="M27.267 5.8c0-0.4-0.133-0.667-0.4-0.933l-4-4c-0.4-0.4-0.8-0.533-1.2-0.4h-14.8c-0.933-0.133-1.867 0.667-2.133 1.733v27.333c0 1.2 0.933 2.133 2.133 2.133h18.133c1.2 0 2.133-0.933 2.133-2.133v-23.467l0.133-0.267c0 0.133 0 0.133 0 0zM25.933 5.8c0.133 0.133 0 0.4-0.133 0.4h-3.6c-0.4 0-0.667-0.267-0.667-0.667v-3.6c0-0.267 0.267-0.267 0.4-0.133l4 4zM26.067 29.533c0 0.533-0.4 0.933-0.933 0.933h-18.267c-0.533 0-0.933-0.4-0.933-0.933v-27.2c0.133-0.4 0.4-0.667 0.933-0.667h13.333v3.867c0 1.067 0.8 2 2 2h3.867v22z"></path>
        </symbol>
        <symbol id="icon-scissors" viewBox="0 0 32 32">
            <path
                d="M22.312 18.070l-3.303-4.685c2.866-4.067 5.652-8.546 5.165-11.383-0.139-0.812-0.537-1.454-1.182-1.909-0.111-0.078-0.248-0.109-0.382-0.086s-0.253 0.098-0.331 0.209l-6.278 8.903-6.278-8.903c-0.078-0.111-0.197-0.186-0.331-0.209s-0.271 0.008-0.382 0.086c-0.649 0.458-1.048 1.105-1.184 1.925-0.483 2.89 2.41 7.461 5.167 11.368l-3.303 4.684c-2.739 0.092-4.939 2.349-4.939 5.11v3.707c0 2.819 2.294 5.113 5.113 5.113s5.113-2.294 5.113-5.113v-3.707c0-0.797-0.188-1.586-0.546-2.295 0.3-1.036 0.827-2.134 1.571-3.272 0.743 1.138 1.27 2.236 1.57 3.272-0.358 0.71-0.546 1.499-0.546 2.295v3.707c0 2.819 2.294 5.113 5.113 5.113s5.113-2.294 5.113-5.113v-3.707c-0-2.761-2.2-5.018-4.939-5.11zM22.78 1.282c0.197 0.245 0.324 0.541 0.385 0.894 0.192 1.116-0.281 2.776-1.406 4.934-0.967 1.857-2.264 3.798-3.377 5.387l-1.756-2.49 6.153-8.726zM13.391 20.8c-0.033 0.112-0.028 0.234 0.021 0.346 0.008 0.018 0.016 0.035 0.026 0.052 0.337 0.604 0.515 1.29 0.515 1.982v3.707c0 2.255-1.835 4.089-4.090 4.089s-4.089-1.835-4.089-4.089v-3.707c0-2.255 1.835-4.090 4.089-4.090 0.013 0 0.026 0.001 0.039 0.001l0.035 0.001c0.002 0 0.004 0 0.005 0h0.001c0.004 0 0.007 0 0.011 0 0.178 0 0.335-0.091 0.427-0.23l2.805-3.978 1.784 1.258c0.136 0.19 0.269 0.374 0.395 0.551 0 0 0 0 0 0 0.003 0.004 0.006 0.008 0.009 0.012-0.97 1.418-1.637 2.793-1.983 4.093zM16 15.618l-0.3-0.211c-0.112-0.156-1.531-2.128-1.618-2.251-1.123-1.582-2.312-3.328-3.281-5.022-1.52-2.659-2.182-4.66-1.968-5.946 0.060-0.358 0.187-0.658 0.387-0.906l9.003 12.768-2.224 1.568zM26.227 26.887h-0c0 2.255-1.835 4.089-4.089 4.089s-4.090-1.835-4.090-4.089v-3.707c0-0.694 0.179-1.381 0.517-1.986 0.065-0.116 0.082-0.252 0.048-0.381-0.36-1.361-1.072-2.805-2.117-4.294l2.318-1.634 2.806 3.98c0.091 0.136 0.246 0.226 0.421 0.228 0 0 0.001 0 0.001 0 0.008 0 0.016 0 0.024-0l0.033-0.001c0.013-0 0.026-0.001 0.038-0.001 2.255 0 4.089 1.835 4.089 4.090v3.707z"></path>
            <path
                d="M22.138 20.744c-1.343 0-2.436 1.093-2.436 2.436v3.707c0 1.343 1.093 2.436 2.436 2.436s2.436-1.093 2.436-2.436v-3.707c0-1.343-1.093-2.436-2.436-2.436zM23.551 26.887c0 0.779-0.634 1.413-1.413 1.413s-1.413-0.634-1.413-1.413v-3.707c0-0.779 0.634-1.413 1.413-1.413s1.413 0.634 1.413 1.413v3.707z"></path>
            <path
                d="M9.862 20.744c-1.343 0-2.436 1.093-2.436 2.436v3.707c0 1.343 1.093 2.436 2.436 2.436s2.436-1.093 2.436-2.436v-3.707c0-1.343-1.093-2.436-2.436-2.436zM11.275 26.887c0 0.779-0.634 1.413-1.413 1.413s-1.413-0.634-1.413-1.413v-3.707c0-0.779 0.634-1.413 1.413-1.413s1.413 0.634 1.413 1.413v3.707z"></path>
        </symbol>
        <symbol id="icon-search" viewBox="0 0 32 32">
            <path fill="none" stroke="#fff" style="stroke: var(--color1, #fff)"
                stroke-linejoin="miter" stroke-linecap="butt" stroke-miterlimit="4" stroke-width="4"
                d="M24.087 13.043c0 6.099-4.944 11.043-11.043 11.043s-11.043-4.944-11.043-11.043c0-6.099 4.944-11.043 11.043-11.043s11.043 4.944 11.043 11.043z"></path>
            <path fill="#fff" style="fill: var(--color1, #fff)"
                d="M28.586 31.414c0.781 0.781 2.047 0.781 2.828 0s0.781-2.047 0-2.828l-2.828 2.828zM22.936 20.108l-1.414-1.414-2.829 2.828 1.414 1.414 2.828-2.828zM31.414 28.586l-8.478-8.478-2.828 2.828 8.478 8.478 2.828-2.828z"></path>
        </symbol>
        <symbol id="icon-arrow-left" viewBox="0 0 32 32">
            <path
                d="M13.333 29.333l-13.333-13.333 13.333-13.333 2.367 2.367-10.967 10.967 10.967 10.967-2.367 2.367z"></path>
        </symbol>
        <symbol id="icon-arrow-right" viewBox="0 0 32 32">
            <path
                d="M10.7 29.333l-2.367-2.367 10.967-10.967-10.967-10.967 2.367-2.367 13.333 13.333-13.333 13.333z"></path>
        </symbol>
        <symbol id="icon-footer-modal-close-btn" viewBox="0 0 32 32">
            <path
                d="M1.198 0.091c-0.441 0.144-0.781 0.431-0.992 0.834-0.12 0.22-0.134 0.302-0.134 0.704 0 0.407 0.014 0.484 0.134 0.719 0.115 0.216 1.365 1.49 6.826 6.956l6.692 6.697-6.692 6.692c-5.461 5.471-6.711 6.745-6.826 6.96-0.12 0.235-0.134 0.311-0.134 0.719 0 0.402 0.014 0.484 0.134 0.704 0.163 0.316 0.402 0.556 0.719 0.719 0.22 0.12 0.302 0.134 0.704 0.134 0.407 0 0.484-0.014 0.719-0.134 0.216-0.115 1.49-1.365 6.96-6.826l6.692-6.692 6.697 6.692c5.466 5.461 6.74 6.711 6.956 6.826 0.235 0.12 0.311 0.134 0.719 0.134 0.402 0 0.484-0.014 0.704-0.134 0.316-0.163 0.556-0.402 0.719-0.719 0.12-0.22 0.134-0.302 0.134-0.704 0-0.407-0.014-0.484-0.134-0.719-0.115-0.216-1.365-1.49-6.826-6.956l-6.692-6.697 6.692-6.697c5.461-5.466 6.711-6.74 6.826-6.956 0.12-0.235 0.134-0.311 0.134-0.719 0-0.402-0.014-0.484-0.134-0.704-0.163-0.316-0.402-0.556-0.719-0.719-0.22-0.12-0.302-0.134-0.704-0.134-0.407 0-0.484 0.014-0.719 0.134-0.216 0.115-1.49 1.365-6.956 6.826l-6.697 6.692-6.692-6.692c-5.566-5.557-6.74-6.711-6.96-6.822-0.211-0.105-0.345-0.134-0.647-0.144-0.211-0.010-0.436 0-0.503 0.024z"></path>
        </symbol>
        <symbol id="icon-paper" viewBox="0 0 32 32">
            <path
                d="M27.267 5.8c0-0.4-0.133-0.667-0.4-0.933l-4-4c-0.4-0.4-0.8-0.533-1.2-0.4h-14.8c-0.933-0.133-1.867 0.667-2.133 1.733v27.333c0 1.2 0.933 2.133 2.133 2.133h18.133c1.2 0 2.133-0.933 2.133-2.133v-23.467l0.133-0.267c0 0.133 0 0.133 0 0zM25.933 5.8c0.133 0.133 0 0.4-0.133 0.4h-3.6c-0.4 0-0.667-0.267-0.667-0.667v-3.6c0-0.267 0.267-0.267 0.4-0.133l4 4zM26.067 29.533c0 0.533-0.4 0.933-0.933 0.933h-18.267c-0.533 0-0.933-0.4-0.933-0.933v-27.2c0.133-0.4 0.4-0.667 0.933-0.667h13.333v3.867c0 1.067 0.8 2 2 2h3.867v22z"></path>
        </symbol>
        <symbol id="icon-scissors" viewBox="0 0 32 32">
            <path
                d="M22.312 18.070l-3.303-4.685c2.866-4.067 5.652-8.546 5.165-11.383-0.139-0.812-0.537-1.454-1.182-1.909-0.111-0.078-0.248-0.109-0.382-0.086s-0.253 0.098-0.331 0.209l-6.278 8.903-6.278-8.903c-0.078-0.111-0.197-0.186-0.331-0.209s-0.271 0.008-0.382 0.086c-0.649 0.458-1.048 1.105-1.184 1.925-0.483 2.89 2.41 7.461 5.167 11.368l-3.303 4.684c-2.739 0.092-4.939 2.349-4.939 5.11v3.707c0 2.819 2.294 5.113 5.113 5.113s5.113-2.294 5.113-5.113v-3.707c0-0.797-0.188-1.586-0.546-2.295 0.3-1.036 0.827-2.134 1.571-3.272 0.743 1.138 1.27 2.236 1.57 3.272-0.358 0.71-0.546 1.499-0.546 2.295v3.707c0 2.819 2.294 5.113 5.113 5.113s5.113-2.294 5.113-5.113v-3.707c-0-2.761-2.2-5.018-4.939-5.11zM22.78 1.282c0.197 0.245 0.324 0.541 0.385 0.894 0.192 1.116-0.281 2.776-1.406 4.934-0.967 1.857-2.264 3.798-3.377 5.387l-1.756-2.49 6.153-8.726zM13.391 20.8c-0.033 0.112-0.028 0.234 0.021 0.346 0.008 0.018 0.016 0.035 0.026 0.052 0.337 0.604 0.515 1.29 0.515 1.982v3.707c0 2.255-1.835 4.089-4.090 4.089s-4.089-1.835-4.089-4.089v-3.707c0-2.255 1.835-4.090 4.089-4.090 0.013 0 0.026 0.001 0.039 0.001l0.035 0.001c0.002 0 0.004 0 0.005 0h0.001c0.004 0 0.007 0 0.011 0 0.178 0 0.335-0.091 0.427-0.23l2.805-3.978 1.784 1.258c0.136 0.19 0.269 0.374 0.395 0.551 0 0 0 0 0 0 0.003 0.004 0.006 0.008 0.009 0.012-0.97 1.418-1.637 2.793-1.983 4.093zM16 15.618l-0.3-0.211c-0.112-0.156-1.531-2.128-1.618-2.251-1.123-1.582-2.312-3.328-3.281-5.022-1.52-2.659-2.182-4.66-1.968-5.946 0.060-0.358 0.187-0.658 0.387-0.906l9.003 12.768-2.224 1.568zM26.227 26.887h-0c0 2.255-1.835 4.089-4.089 4.089s-4.090-1.835-4.090-4.089v-3.707c0-0.694 0.179-1.381 0.517-1.986 0.065-0.116 0.082-0.252 0.048-0.381-0.36-1.361-1.072-2.805-2.117-4.294l2.318-1.634 2.806 3.98c0.091 0.136 0.246 0.226 0.421 0.228 0 0 0.001 0 0.001 0 0.008 0 0.016 0 0.024-0l0.033-0.001c0.013-0 0.026-0.001 0.038-0.001 2.255 0 4.089 1.835 4.089 4.090v3.707z"></path>
            <path
                d="M22.138 20.744c-1.343 0-2.436 1.093-2.436 2.436v3.707c0 1.343 1.093 2.436 2.436 2.436s2.436-1.093 2.436-2.436v-3.707c0-1.343-1.093-2.436-2.436-2.436zM23.551 26.887c0 0.779-0.634 1.413-1.413 1.413s-1.413-0.634-1.413-1.413v-3.707c0-0.779 0.634-1.413 1.413-1.413s1.413 0.634 1.413 1.413v3.707z"></path>
            <path
                d="M9.862 20.744c-1.343 0-2.436 1.093-2.436 2.436v3.707c0 1.343 1.093 2.436 2.436 2.436s2.436-1.093 2.436-2.436v-3.707c0-1.343-1.093-2.436-2.436-2.436zM11.275 26.887c0 0.779-0.634 1.413-1.413 1.413s-1.413-0.634-1.413-1.413v-3.707c0-0.779 0.634-1.413 1.413-1.413s1.413 0.634 1.413 1.413v3.707z"></path>
        </symbol>
        <symbol id="icon-rock" viewBox="0 0 32 32">
            <path
                d="M29.202 11.903c-0.378-1.864-1.633-3.338-3.628-4.261-2.273-1.052-5.46-1.385-9.473-0.991-6.214 0.61-10.239 2.548-11.963 5.761-0.907 1.69-1.146 3.746-0.693 5.946 0.316 1.533 0.858 2.629 0.952 2.81 0.084 0.208 0.633 1.495 1.849 2.788 1.205 1.282 3.317 2.811 6.539 2.811 3.335 0 4.357-1.121 5.539-2.419 0.995-1.092 2.122-2.329 5.078-3.251 1.754-0.547 3.409-1.87 4.541-3.627 1.154-1.792 1.613-3.821 1.259-5.566zM23.12 20.191c-3.201 0.999-4.474 2.396-5.496 3.518-1.116 1.224-1.922 2.109-4.838 2.109-2.301 0-4.26-0.836-5.823-2.486-1.183-1.248-1.685-2.52-1.69-2.533-0.007-0.017-0.015-0.035-0.023-0.051-0.022-0.042-2.215-4.278-0.271-7.894 1.567-2.913 5.34-4.682 11.216-5.259 6.958-0.683 11.36 0.956 12.078 4.497 0.636 3.138-1.868 7.074-5.153 8.099z"></path>
            <path
                d="M27.466 8.878c-0.173-0.197-0.472-0.216-0.669-0.044-0.017 0.015-1.698 1.474-3.601 1.922-2.188 0.515-3.815 2.615-3.883 2.704-0.159 0.208-0.119 0.505 0.088 0.665 0.086 0.066 0.187 0.098 0.288 0.098 0.142 0 0.283-0.064 0.377-0.186 0.015-0.019 1.493-1.921 3.347-2.357 2.139-0.503 3.935-2.067 4.010-2.133 0.197-0.173 0.216-0.472 0.043-0.669z"></path>
            <path
                d="M22.985 11.277c-0.085-0.192-0.283-0.3-0.48-0.28-0.258-0.014-1.698-0.225-2.982-0.428-0.258-0.041-0.502 0.136-0.543 0.394s0.136 0.502 0.394 0.543c2.183 0.345 2.884 0.436 3.16 0.436 0.122 0 0.161-0.018 0.209-0.038 0.239-0.106 0.348-0.386 0.242-0.626z"></path>
            <path
                d="M16.395 19.596c-0.031-0.26-0.267-0.446-0.527-0.415-1.371 0.163-2.381 0.562-3.002 1.187-0.462 0.464-0.555 0.899-0.573 1.042-0.024 0.119-0.257 1.105-1.306 1.303-1.653 0.313-2.684 2.252-2.727 2.335-0.121 0.232-0.032 0.519 0.201 0.64 0.070 0.037 0.145 0.054 0.219 0.054 0.171 0 0.336-0.093 0.421-0.255 0.234-0.448 1.062-1.653 2.063-1.842 1.75-0.331 2.054-2.013 2.066-2.084 0.004-0.021 0.004-0.018 0.005-0.032 0.021-0.095 0.302-1.115 2.746-1.405 0.26-0.031 0.446-0.267 0.415-0.527z"></path>
            <path
                d="M14.602 23.628c-0.074-0.251-0.337-0.395-0.589-0.322-1.85 0.543-3.007 2.559-3.055 2.645-0.129 0.228-0.048 0.517 0.18 0.646 0.074 0.042 0.154 0.061 0.233 0.061 0.166 0 0.326-0.087 0.414-0.241 0.010-0.018 1.011-1.765 2.496-2.201 0.251-0.074 0.395-0.337 0.322-0.589z"></path>
            <path
                d="M9.415 15.564c-0.019-0.261-0.246-0.458-0.507-0.439-1.196 0.085-1.336-0.063-2.005-0.774-0.132-0.14-0.281-0.298-0.457-0.474-1.219-1.219-2.148-1.116-2.25-1.1-0.259 0.040-0.436 0.283-0.396 0.541s0.283 0.436 0.541 0.396c0.005-0.001 0.574-0.027 1.434 0.834 0.166 0.166 0.31 0.319 0.437 0.454 0.683 0.725 1.081 1.090 2.245 1.090 0.158 0 0.33-0.007 0.519-0.020 0.261-0.019 0.458-0.246 0.439-0.507z"></path>
            <path
                d="M13.341 10.573c-0.325-0.182-0.866-0.275-1.599 0.312-0.326 0.261-0.609 0.524-0.859 0.756-0.917 0.852-1.084 0.917-1.495 0.578-0.051-0.042-0.059-0.063-0.059-0.063-0.010-0.117 0.281-0.461 0.437-0.646 0.342-0.404 0.729-0.863 0.675-1.402-0.030-0.294-0.184-0.553-0.458-0.769-1.412-1.115-3.209 0.182-3.285 0.238-0.211 0.155-0.256 0.452-0.101 0.663s0.452 0.256 0.663 0.101c0.013-0.009 1.284-0.929 2.135-0.257 0.072 0.057 0.1 0.1 0.102 0.12 0.014 0.139-0.28 0.486-0.455 0.694-0.346 0.409-0.703 0.831-0.657 1.343 0.024 0.271 0.159 0.51 0.4 0.71 1.103 0.912 1.938 0.136 2.745-0.615 0.249-0.232 0.507-0.471 0.806-0.71 0.239-0.192 0.448-0.278 0.543-0.224 0.233 0.13 0.485 0.926 0.316 2.289-0.032 0.26 0.153 0.497 0.413 0.529 0.020 0.002 0.039 0.004 0.059 0.004 0.236-0 0.441-0.176 0.47-0.416 0.202-1.634-0.095-2.843-0.795-3.234z"></path>
            <path
                d="M15.165 10.996c-1.394 0.058-1.872 1.446-1.892 1.505-0.083 0.249 0.052 0.517 0.3 0.6 0.050 0.017 0.1 0.024 0.15 0.024 0.199 0 0.384-0.126 0.45-0.325 0.003-0.008 0.283-0.826 1.030-0.857 0.262-0.011 0.465-0.232 0.454-0.494s-0.232-0.466-0.493-0.454z"></path>
            <path
                d="M28.878 10.852c-0.068-0.16-0.22-0.271-0.394-0.288-0.285-0.026-0.429 0.189-0.476 0.259-0.556 0.835-1.624 1.408-3.006 1.614-2.848 0.424-4.004 2.039-4.052 2.107-0.003 0.004-0.006 0.009-0.009 0.013-0.435 0.671-1.857 2.355-3.189 2.101-0.257-0.049-0.506 0.12-0.555 0.377s0.12 0.506 0.377 0.555c0.156 0.030 0.31 0.044 0.462 0.044 1.971-0 3.558-2.342 3.695-2.549 0.077-0.104 1.043-1.356 3.412-1.709 1.648-0.245 2.945-0.963 3.652-2.022 0.119-0.133 0.158-0.327 0.083-0.502z"></path>
            <path
                d="M24.693 12.637c-0.217-0.146-0.512-0.089-0.658 0.128s-0.089 0.512 0.128 0.659c0.027 0.018 0.652 0.451 0.348 1.322-0.086 0.247 0.044 0.518 0.292 0.604 0.052 0.018 0.105 0.027 0.156 0.027 0.196 0 0.38-0.123 0.448-0.318 0.434-1.242-0.277-2.127-0.714-2.421z"></path>
            <path
                d="M29.31 13.645c-0.057-0.256-0.31-0.417-0.566-0.36-0.188 0.042-4.62 1.047-6.237 2.742-0.181 0.19-0.174 0.49 0.016 0.671 0.092 0.088 0.21 0.131 0.327 0.131 0.125 0 0.25-0.049 0.343-0.147 1.418-1.487 5.714-2.461 5.757-2.471 0.256-0.057 0.417-0.311 0.36-0.566z"></path>
            <path
                d="M10.14 20.383c-0.168-0.201-0.467-0.227-0.668-0.059-0.778 0.652-1.331 0.683-1.336 0.683l0.010-0v0.949c0.088 0 0.887-0.025 1.936-0.905 0.201-0.168 0.227-0.468 0.059-0.668z"></path>
            <path
                d="M12.474 17.965c-0.244-0.095-0.519 0.026-0.614 0.27-0.295 0.756-1.105 1.201-1.117 1.207-0.231 0.123-0.318 0.409-0.196 0.64 0.085 0.161 0.25 0.253 0.42 0.253 0.075 0 0.151-0.018 0.222-0.055 0.046-0.024 1.13-0.608 1.556-1.7 0.095-0.244-0.026-0.519-0.27-0.614z"></path>
            <path
                d="M5.569 30.039c-0.175-1.228-2.539-1.912-2.563-1.919-1.81-0.513-2.586 0.631-2.918 1.681-0.212 0.671-0.035 1.288 0.488 1.693 0.431 0.334 1.079 0.497 1.782 0.497 0.832 0 1.74-0.229 2.452-0.676 0.714-0.448 0.806-0.941 0.759-1.276zM4.306 30.512c-1.056 0.662-2.586 0.668-3.149 0.232-0.139-0.108-0.284-0.28-0.165-0.656 0.284-0.897 0.714-1.149 1.185-1.149 0.186 0 0.379 0.040 0.571 0.094 0.79 0.224 1.834 0.806 1.882 1.14 0.009 0.062-0.088 0.191-0.323 0.338z"></path>
            <path
                d="M3.29 28.345c-0.128-0.229-0.417-0.31-0.646-0.182-0.024 0.013-0.588 0.334-1.008 0.918-0.582 0.81-0.623 1.759-0.115 2.671 0.087 0.156 0.248 0.244 0.415 0.244 0.078 0 0.157-0.019 0.23-0.060 0.229-0.127 0.311-0.416 0.184-0.645-0.766-1.376 0.6-2.21 0.759-2.301 0.228-0.128 0.308-0.417 0.18-0.645z"></path>
            <path
                d="M31.706 0.888c-0.212-0.31-0.635-0.687-1.439-0.726-0.222-0.011-0.443-0.045-0.657-0.079-0.5-0.079-1.017-0.16-1.513 0.081-0.526 0.256-0.904 0.821-1.188 1.777-0.491 1.653-0.526 2.632-0.114 3.274 0.262 0.41 0.704 0.663 1.311 0.75 0.066 0.010 0.131 0.014 0.197 0.014 0.834 0 1.653-0.734 2.211-1.377 0.633-0.73 1.205-1.662 1.423-2.317 0.114-0.344 0.091-0.928-0.232-1.398zM31.037 1.987c-0.369 1.111-1.906 3.045-2.727 3.045-0.023 0-0.046-0.002-0.068-0.005-0.436-0.063-0.578-0.214-0.648-0.323-0.237-0.371-0.164-1.186 0.225-2.493 0.198-0.664 0.431-1.066 0.694-1.194 0.097-0.047 0.212-0.065 0.342-0.065 0.174 0 0.377 0.032 0.608 0.069 0.228 0.036 0.486 0.077 0.759 0.090 0.333 0.016 0.569 0.122 0.701 0.315 0.144 0.21 0.14 0.483 0.114 0.562z"></path>
            <path
                d="M31.358 2.589c-1.341-1.841-3.816-1.33-3.921-1.307-0.256 0.055-0.419 0.308-0.363 0.564s0.308 0.419 0.564 0.363c0.019-0.004 1.972-0.409 2.953 0.938 0.093 0.127 0.237 0.195 0.384 0.195 0.097 0 0.195-0.030 0.279-0.091 0.212-0.154 0.258-0.451 0.104-0.663z"></path>
            <path
                d="M24.325 3.153c-0.774-0.127-1.508 0.399-1.635 1.174s0.399 1.508 1.174 1.635c0.078 0.013 0.155 0.019 0.232 0.019 0.684 0 1.289-0.496 1.404-1.192v-0c0.127-0.774-0.399-1.508-1.174-1.635zM24.562 4.634c-0.043 0.258-0.287 0.434-0.545 0.391s-0.434-0.287-0.391-0.545c0.038-0.232 0.24-0.397 0.468-0.397 0.025 0 0.051 0.002 0.077 0.006 0.258 0.042 0.433 0.287 0.391 0.545z"></path>
            <path
                d="M10.007 28.012c-0.774-0.127-1.508 0.399-1.635 1.174-0.062 0.375 0.027 0.752 0.248 1.061s0.55 0.513 0.925 0.575c0.078 0.013 0.156 0.019 0.234 0.019 0.295 0 0.582-0.092 0.827-0.267 0.309-0.222 0.513-0.55 0.575-0.925 0.127-0.774-0.399-1.508-1.174-1.635zM10.244 29.494c-0.042 0.258-0.286 0.434-0.545 0.391s-0.434-0.287-0.391-0.545c0.038-0.232 0.24-0.398 0.468-0.398 0.025 0 0.051 0.002 0.077 0.006 0.258 0.042 0.434 0.287 0.391 0.545z"></path>
        </symbol>
        <symbol id="icon-puzzle-modal" viewBox="0 0 44 32">
            <path
                d="M28.269 0.018c-0.047 0.009-0.115 0.027-0.147 0.038-0.032 0.015-0.145 0.044-0.251 0.062-0.106 0.021-0.218 0.053-0.251 0.074s-0.103 0.047-0.159 0.059c-0.056 0.012-0.189 0.068-0.295 0.124-0.106 0.059-0.224 0.121-0.26 0.139-0.038 0.018-0.068 0.041-0.068 0.053s-0.047 0.044-0.106 0.071c-0.206 0.097-0.908 0.82-1.071 1.103-0.056 0.091-0.316 0.599-0.321 0.619 0 0.009-0.015 0.053-0.032 0.097s-0.038 0.118-0.050 0.162c-0.009 0.044-0.029 0.106-0.041 0.139-0.038 0.083-0.088 0.386-0.088 0.519 0 0.062-0.012 0.121-0.029 0.13-0.018 0.012-0.029 0.156-0.029 0.342 0 0.195 0.012 0.321 0.029 0.321s0.029 0.047 0.029 0.106c0 0.145 0.059 0.522 0.088 0.557 0.015 0.018 0.041 0.097 0.062 0.177 0.038 0.168 0.304 0.737 0.36 0.773 0.021 0.012-1.186 0.029-2.678 0.038l-2.716 0.015-0.127 0.1c-0.13 0.103-0.227 0.268-0.212 0.363 0.003 0.029-0.009 0.053-0.024 0.053-0.024 0-0.032 0.787-0.032 2.61 0 1.658-0.012 2.61-0.029 2.61-0.015 0-0.091-0.041-0.168-0.088-0.077-0.050-0.153-0.088-0.168-0.088-0.018 0-0.068-0.018-0.112-0.041-0.041-0.024-0.127-0.056-0.192-0.077-0.062-0.018-0.153-0.053-0.201-0.074-0.050-0.024-0.162-0.050-0.251-0.062s-0.18-0.035-0.203-0.053c-0.059-0.047-1.209-0.044-1.304 0.003-0.038 0.018-0.153 0.047-0.254 0.068-0.1 0.018-0.221 0.050-0.265 0.074s-0.103 0.044-0.127 0.044c-0.027 0-0.071 0.018-0.103 0.038-0.032 0.024-0.121 0.062-0.201 0.088-0.077 0.027-0.174 0.074-0.218 0.106-0.041 0.035-0.091 0.062-0.112 0.062s-0.044 0.021-0.056 0.044c-0.009 0.024-0.030 0.044-0.047 0.044-0.133 0-1.026 0.891-1.1 1.097-0.012 0.030-0.032 0.053-0.050 0.053-0.015 0-0.030 0.015-0.030 0.032s-0.027 0.068-0.056 0.112c-0.032 0.044-0.080 0.139-0.106 0.212-0.027 0.071-0.068 0.165-0.091 0.209-0.024 0.041-0.041 0.094-0.041 0.118 0 0.021-0.018 0.074-0.041 0.115-0.021 0.041-0.047 0.109-0.059 0.153l-0.018 0.080h-1.708l0.071-0.159c0.195-0.437 0.298-1.056 0.271-1.61-0.103-2.073-1.849-3.66-3.914-3.557-0.947 0.047-1.755 0.398-2.436 1.056-0.749 0.723-1.133 1.637-1.133 2.696 0 0.507 0.097 0.991 0.31 1.522 0.021 0.050-0.115 0.053-2.569 0.053-1.805 0-2.628 0.009-2.71 0.032-0.162 0.047-0.271 0.13-0.339 0.265-0.059 0.112-0.059 0.189-0.053 8.869l0.009 8.756 0.086 0.109c0.047 0.062 0.139 0.139 0.206 0.168 0.118 0.053 0.386 0.056 8.807 0.056s8.689-0.003 8.807-0.056c0.068-0.029 0.159-0.106 0.206-0.168l0.086-0.109 0.009-3.244 0.006-3.244-0.062-0.13c-0.041-0.086-0.103-0.15-0.183-0.198-0.265-0.15-0.413-0.127-0.734 0.118-0.428 0.324-0.861 0.507-1.366 0.575-0.655 0.086-1.383-0.109-1.926-0.519-0.404-0.304-0.761-0.79-0.923-1.259-0.227-0.667-0.18-1.457 0.124-2.067 0.189-0.378 0.572-0.811 0.92-1.050 0.64-0.436 1.563-0.563 2.303-0.321 0.28 0.091 0.59 0.257 0.808 0.428 0.242 0.192 0.351 0.245 0.504 0.245 0.15 0 0.262-0.044 0.369-0.142 0.162-0.153 0.165-0.177 0.165-1.345v-1.074l0.206-0.021c0.115-0.012 0.206-0.029 0.206-0.041s0.121-0.044 0.265-0.074c0.147-0.029 0.265-0.065 0.265-0.077s0.035-0.032 0.083-0.044c0.088-0.021 0.466-0.203 0.528-0.254 0.032-0.029 0.038 0.407 0.038 2.592 0 1.861 0.009 2.634 0.032 2.648 0.018 0.009 0.027 0.041 0.018 0.071-0.006 0.027 0.012 0.083 0.041 0.121s0.056 0.083 0.056 0.1c0 0.015 0.059 0.065 0.13 0.109l0.13 0.083h3.468c2.873 0 3.486-0.006 3.566-0.041 0.056-0.021 0.142-0.094 0.195-0.162 0.115-0.145 0.153-0.389 0.091-0.581-0.035-0.106-0.23-0.336-0.286-0.336-0.038 0-0.51-0.484-0.51-0.522 0-0.021-0.018-0.047-0.035-0.059-0.071-0.044-0.251-0.395-0.319-0.613-0.021-0.065-0.050-0.145-0.062-0.177-0.041-0.097-0.086-0.431-0.086-0.655 0-0.242 0.053-0.664 0.086-0.687 0.015-0.009 0.041-0.088 0.062-0.177 0.021-0.086 0.050-0.174 0.065-0.192 0.029-0.035 0.115-0.189 0.189-0.339 0.027-0.056 0.195-0.251 0.378-0.428 0.274-0.271 0.366-0.345 0.563-0.436 0.13-0.065 0.268-0.133 0.31-0.153s0.127-0.047 0.192-0.059c0.065-0.012 0.136-0.038 0.159-0.056 0.059-0.044 1.071-0.044 1.127 0.003 0.024 0.018 0.1 0.047 0.174 0.068 0.147 0.035 0.301 0.097 0.413 0.162 0.041 0.024 0.118 0.065 0.171 0.088 0.050 0.024 0.094 0.059 0.094 0.074 0 0.018 0.021 0.029 0.044 0.029 0.059 0 0.605 0.546 0.605 0.605 0 0.024 0.012 0.044 0.027 0.044 0.018 0 0.050 0.035 0.074 0.083 0.121 0.221 0.224 0.448 0.257 0.566 0.021 0.074 0.047 0.147 0.062 0.165 0.012 0.018 0.038 0.165 0.056 0.33 0.032 0.307-0.003 0.861-0.059 0.932-0.012 0.018-0.032 0.074-0.041 0.127-0.032 0.171-0.292 0.672-0.38 0.74-0.029 0.021-0.053 0.056-0.053 0.074 0 0.041-0.386 0.434-0.425 0.434-0.015 0-0.091 0.065-0.171 0.145-0.136 0.136-0.147 0.159-0.162 0.321-0.024 0.245 0.009 0.372 0.118 0.498 0.174 0.198-0.062 0.186 3.754 0.186h3.468l0.13-0.083c0.071-0.044 0.13-0.094 0.13-0.109 0-0.018 0.027-0.062 0.056-0.1s0.047-0.094 0.041-0.121c-0.009-0.029 0-0.062 0.018-0.071 0.024-0.015 0.032-0.787 0.032-2.648 0-2.185 0.006-2.622 0.038-2.592 0.062 0.050 0.439 0.233 0.531 0.254 0.044 0.012 0.080 0.032 0.080 0.044s0.115 0.047 0.26 0.077c0.142 0.029 0.263 0.062 0.271 0.074 0.009 0.015 0.198 0.038 0.419 0.056 0.413 0.032 1.059 0 1.168-0.056 0.027-0.018 0.153-0.050 0.277-0.077 0.127-0.027 0.236-0.059 0.245-0.074s0.074-0.044 0.142-0.062c0.068-0.018 0.13-0.041 0.139-0.053 0.009-0.009 0.083-0.050 0.162-0.088 0.083-0.041 0.209-0.118 0.283-0.171 0.077-0.053 0.145-0.097 0.156-0.097 0.047 0 0.696-0.619 0.696-0.661 0-0.018 0.027-0.050 0.059-0.071s0.059-0.050 0.059-0.068c0-0.018 0.044-0.086 0.097-0.153 0.106-0.133 0.389-0.69 0.422-0.829 0.012-0.047 0.038-0.121 0.059-0.162 0.024-0.041 0.047-0.153 0.059-0.245 0.012-0.094 0.032-0.171 0.047-0.171s0.027-0.050 0.021-0.112c-0.003-0.059 0.006-0.133 0.018-0.162 0.032-0.080 0.003-1.029-0.038-1.097-0.018-0.032-0.047-0.142-0.065-0.242s-0.050-0.221-0.074-0.265c-0.024-0.044-0.044-0.1-0.044-0.121 0-0.024-0.018-0.077-0.041-0.118-0.024-0.044-0.065-0.139-0.091-0.209s-0.074-0.162-0.106-0.204c-0.029-0.041-0.056-0.088-0.056-0.109s-0.021-0.044-0.044-0.056c-0.024-0.009-0.044-0.032-0.044-0.050 0-0.133-0.885-1.018-1.097-1.097-0.029-0.009-0.053-0.032-0.053-0.050 0-0.015-0.018-0.030-0.041-0.030-0.021 0-0.074-0.027-0.115-0.062-0.044-0.032-0.142-0.080-0.218-0.106-0.080-0.027-0.168-0.065-0.201-0.088-0.032-0.021-0.077-0.038-0.103-0.038-0.024 0-0.080-0.018-0.121-0.041-0.041-0.021-0.168-0.056-0.28-0.077s-0.221-0.053-0.245-0.071c-0.056-0.044-1.248-0.044-1.304 0-0.024 0.018-0.115 0.041-0.203 0.053s-0.201 0.038-0.251 0.062c-0.047 0.021-0.139 0.056-0.201 0.074-0.065 0.021-0.15 0.053-0.192 0.077-0.044 0.024-0.094 0.041-0.112 0.041-0.015 0-0.091 0.038-0.168 0.088-0.077 0.047-0.153 0.088-0.168 0.088-0.018 0-0.029-0.953-0.029-2.61 0-1.823-0.009-2.61-0.032-2.61-0.015 0-0.027-0.024-0.024-0.053 0.015-0.094-0.083-0.26-0.212-0.363l-0.127-0.1-2.693-0.009c-1.481-0.003-2.693-0.012-2.693-0.015s0.068-0.139 0.147-0.301c0.083-0.162 0.171-0.375 0.195-0.472 0.027-0.097 0.056-0.192 0.071-0.206 0.029-0.035 0.088-0.413 0.088-0.557 0-0.059 0.015-0.106 0.029-0.106 0.018 0 0.029-0.127 0.029-0.321 0-0.186-0.012-0.33-0.029-0.342-0.015-0.009-0.029-0.068-0.029-0.13 0-0.133-0.050-0.437-0.088-0.519-0.012-0.032-0.032-0.094-0.041-0.139-0.012-0.044-0.032-0.118-0.050-0.162s-0.029-0.083-0.027-0.083c0.006 0-0.271-0.543-0.327-0.634-0.201-0.351-0.908-1.047-1.248-1.23-0.068-0.035-0.206-0.106-0.313-0.156s-0.227-0.109-0.268-0.133c-0.044-0.021-0.192-0.059-0.324-0.088-0.136-0.027-0.274-0.065-0.307-0.083-0.059-0.032-1.115-0.059-1.298-0.032zM29.343 1.203c0.009 0.015 0.097 0.041 0.195 0.062 0.159 0.035 0.304 0.097 0.649 0.274 0.15 0.080 0.761 0.687 0.823 0.823 0.027 0.056 0.068 0.133 0.091 0.174 0.086 0.153 0.156 0.316 0.177 0.413 0.012 0.056 0.032 0.109 0.044 0.118s0.038 0.162 0.059 0.342c0.032 0.333 0 0.9-0.059 0.97-0.015 0.018-0.041 0.094-0.059 0.171-0.021 0.077-0.050 0.139-0.065 0.139s-0.024 0.018-0.021 0.035c0.015 0.086-0.139 0.345-0.354 0.613-0.032 0.041-0.094 0.118-0.136 0.168-0.044 0.053-0.091 0.097-0.109 0.097s-0.074 0.047-0.13 0.103c-0.053 0.056-0.109 0.103-0.124 0.103-0.059 0-0.209 0.206-0.23 0.313-0.012 0.059-0.012 0.183-0.003 0.277 0.018 0.195 0.094 0.321 0.257 0.422l0.103 0.065 6.194 0.029 0.029 6.223 0.071 0.097c0.041 0.059 0.136 0.13 0.233 0.174 0.139 0.062 0.189 0.071 0.327 0.056 0.097-0.012 0.174-0.038 0.189-0.062 0.012-0.024 0.038-0.044 0.056-0.044 0.041 0 0.201-0.147 0.201-0.186 0-0.015 0.044-0.071 0.097-0.121s0.106-0.115 0.118-0.145c0.009-0.027 0.044-0.059 0.071-0.071 0.029-0.012 0.094-0.062 0.147-0.118 0.050-0.053 0.103-0.097 0.115-0.097s0.062-0.032 0.112-0.071c0.050-0.035 0.186-0.112 0.298-0.162 0.115-0.053 0.23-0.109 0.257-0.121 0.027-0.015 0.139-0.044 0.251-0.062 0.109-0.021 0.212-0.047 0.23-0.062 0.035-0.032 0.702-0.032 0.74 0 0.015 0.015 0.124 0.044 0.242 0.062 0.115 0.021 0.212 0.050 0.212 0.065s0.021 0.027 0.047 0.027c0.065 0 0.484 0.206 0.484 0.239 0 0.015 0.018 0.027 0.041 0.027s0.115 0.068 0.203 0.147c0.088 0.080 0.177 0.147 0.195 0.147s0.032 0.015 0.032 0.032c0 0.018 0.068 0.106 0.147 0.195 0.083 0.088 0.147 0.18 0.147 0.204s0.012 0.041 0.027 0.041c0.032 0 0.239 0.422 0.239 0.487 0 0.024 0.012 0.044 0.027 0.044s0.044 0.097 0.065 0.212c0.018 0.118 0.047 0.227 0.062 0.242 0.032 0.038 0.029 0.746-0.003 0.767-0.015 0.009-0.035 0.094-0.047 0.186-0.009 0.094-0.044 0.221-0.077 0.283-0.029 0.062-0.056 0.124-0.056 0.139s-0.047 0.112-0.103 0.212c-0.156 0.274-0.171 0.301-0.227 0.342-0.029 0.021-0.053 0.053-0.053 0.074 0 0.047-0.298 0.345-0.345 0.345-0.021 0-0.038 0.012-0.038 0.024 0 0.027-0.313 0.242-0.351 0.242-0.015 0-0.032 0.009-0.038 0.021-0.018 0.044-0.274 0.156-0.437 0.192-0.088 0.021-0.171 0.047-0.18 0.059-0.050 0.074-1.121 0.074-1.218-0.003-0.018-0.012-0.097-0.041-0.177-0.062-0.198-0.053-0.572-0.245-0.616-0.319-0.012-0.018-0.044-0.035-0.068-0.035-0.053 0-0.602-0.543-0.602-0.596 0-0.050-0.106-0.145-0.218-0.195-0.106-0.047-0.434-0.047-0.537 0s-0.224 0.168-0.271 0.271c-0.029 0.065-0.035 0.761-0.035 3.162v3.079h-4.636l0.044-0.065c0.027-0.038 0.083-0.142 0.124-0.23 0.044-0.088 0.103-0.209 0.133-0.265s0.068-0.183 0.091-0.28c0.021-0.097 0.047-0.186 0.062-0.195 0.012-0.009 0.038-0.159 0.056-0.339 0.018-0.177 0.044-0.345 0.059-0.372 0.035-0.071 0.032-0.457-0.003-0.481-0.015-0.009-0.029-0.077-0.029-0.15 0-0.165-0.056-0.546-0.088-0.587-0.012-0.018-0.038-0.103-0.059-0.192s-0.053-0.195-0.074-0.236c-0.021-0.041-0.080-0.159-0.13-0.265-0.159-0.319-0.239-0.451-0.36-0.596-0.062-0.077-0.115-0.145-0.115-0.15 0-0.021-0.501-0.522-0.522-0.522-0.009 0-0.074-0.047-0.145-0.103-0.068-0.056-0.139-0.103-0.156-0.103s-0.032-0.009-0.032-0.024c0-0.012-0.029-0.035-0.068-0.053-0.035-0.018-0.156-0.083-0.271-0.142-0.112-0.059-0.257-0.121-0.316-0.142-0.062-0.018-0.112-0.041-0.112-0.053s-0.088-0.038-0.198-0.059c-0.112-0.021-0.212-0.047-0.23-0.059-0.047-0.038-0.537-0.088-0.849-0.088s-0.852 0.053-0.876 0.088c-0.009 0.009-0.097 0.038-0.198 0.059-0.103 0.021-0.186 0.050-0.186 0.062 0 0.015-0.021 0.027-0.044 0.027-0.047 0-0.339 0.121-0.457 0.192-0.041 0.024-0.118 0.065-0.168 0.088-0.053 0.024-0.097 0.059-0.097 0.074 0 0.018-0.018 0.029-0.038 0.029s-0.083 0.038-0.139 0.088c-0.056 0.047-0.112 0.086-0.127 0.088-0.035 0-0.584 0.572-0.702 0.728-0.056 0.080-0.142 0.206-0.189 0.289-0.044 0.080-0.097 0.168-0.118 0.192s-0.059 0.115-0.086 0.198c-0.029 0.086-0.062 0.162-0.077 0.171s-0.041 0.091-0.062 0.186c-0.021 0.091-0.047 0.183-0.059 0.198-0.012 0.018-0.038 0.15-0.056 0.295-0.021 0.147-0.047 0.289-0.062 0.316-0.038 0.074-0.035 0.731 0.003 0.731 0.018 0 0.029 0.056 0.029 0.127 0 0.165 0.053 0.454 0.1 0.566 0.024 0.047 0.050 0.136 0.062 0.192s0.038 0.136 0.059 0.177c0.021 0.041 0.080 0.159 0.13 0.265 0.053 0.106 0.115 0.221 0.142 0.26l0.044 0.065h-4.607v-3.061c0-2.985 0-3.064-0.059-3.173-0.109-0.218-0.31-0.342-0.546-0.342-0.203 0-0.487 0.147-0.487 0.254 0 0.024-0.027 0.056-0.059 0.077s-0.059 0.050-0.059 0.068c0 0.038-0.301 0.339-0.339 0.339-0.015 0-0.047 0.027-0.068 0.059s-0.050 0.059-0.068 0.059c-0.018 0-0.074 0.032-0.124 0.071-0.165 0.124-0.434 0.251-0.652 0.301-0.115 0.027-0.233 0.062-0.265 0.077-0.077 0.041-0.882 0.038-0.897-0.003-0.006-0.018-0.044-0.032-0.086-0.032-0.209 0-0.726-0.227-0.967-0.428-0.071-0.056-0.139-0.103-0.15-0.103-0.027 0-0.336-0.313-0.336-0.339 0-0.009-0.038-0.068-0.086-0.127-0.106-0.133-0.18-0.262-0.339-0.596-0.024-0.047-0.059-0.171-0.077-0.271-0.021-0.103-0.041-0.206-0.050-0.23-0.021-0.068-0.027-0.767-0.006-0.767 0.012 0 0.027-0.077 0.038-0.171 0.012-0.091 0.035-0.204 0.056-0.242 0.021-0.041 0.056-0.13 0.077-0.201 0.024-0.068 0.050-0.124 0.062-0.124s0.038-0.053 0.059-0.118c0.021-0.065 0.050-0.118 0.062-0.118s0.044-0.044 0.071-0.1c0.062-0.127 0.554-0.619 0.681-0.681 0.056-0.027 0.1-0.059 0.1-0.071s0.053-0.041 0.118-0.062c0.065-0.021 0.118-0.047 0.118-0.059s0.056-0.038 0.127-0.062c0.068-0.021 0.156-0.056 0.198-0.077 0.038-0.021 0.15-0.044 0.242-0.056 0.094-0.012 0.171-0.032 0.171-0.044 0-0.035 0.687-0.035 0.726-0.003 0.015 0.015 0.124 0.044 0.242 0.062 0.115 0.021 0.212 0.050 0.212 0.065s0.024 0.027 0.053 0.027c0.115 0 0.631 0.301 0.758 0.442 0.032 0.035 0.088 0.077 0.127 0.091 0.035 0.015 0.077 0.056 0.091 0.091 0.015 0.038 0.124 0.168 0.245 0.292 0.195 0.201 0.233 0.227 0.36 0.245 0.156 0.024 0.372-0.003 0.372-0.044 0-0.015 0.021-0.027 0.047-0.027 0.059 0 0.248-0.195 0.248-0.254 0-0.024 0.015-0.041 0.029-0.041 0.021 0 0.029-1.053 0.029-3.097v-3.097h3.032c1.95 0 3.067-0.012 3.135-0.029 0.162-0.044 0.342-0.254 0.369-0.428 0.021-0.145-0.029-0.457-0.077-0.457-0.012 0-0.029-0.027-0.038-0.059s-0.038-0.068-0.071-0.080c-0.029-0.009-0.080-0.041-0.112-0.071-0.097-0.086-0.478-0.469-0.522-0.525-0.109-0.142-0.33-0.587-0.366-0.728-0.012-0.047-0.029-0.1-0.041-0.115-0.038-0.050-0.088-0.439-0.088-0.675 0-0.283 0.050-0.643 0.103-0.746 0.024-0.047 0.044-0.097 0.044-0.118 0-0.094 0.307-0.619 0.475-0.808 0.357-0.404 0.855-0.72 1.256-0.799 0.094-0.018 0.177-0.044 0.186-0.056s0.077-0.030 0.147-0.035c0.192-0.021 0.835 0.006 0.852 0.032zM9.6 9.512c0.838 0.147 1.566 0.693 1.947 1.469 0.209 0.425 0.26 0.661 0.26 1.186 0 0.398-0.006 0.469-0.080 0.708-0.109 0.36-0.245 0.628-0.481 0.944-0.192 0.254-0.201 0.271-0.209 0.457-0.009 0.162 0 0.206 0.059 0.292 0.091 0.133 0.195 0.206 0.336 0.239 0.062 0.015 0.696 0.030 1.407 0.030h1.289v0.142c0 0.080 0.009 0.153 0.021 0.165s0.018 0.074 0.012 0.136c-0.003 0.065 0.006 0.118 0.021 0.118s0.035 0.077 0.047 0.171c0.012 0.091 0.038 0.204 0.059 0.248 0.024 0.044 0.050 0.124 0.062 0.177 0.021 0.088 0.074 0.209 0.183 0.407 0.024 0.041 0.062 0.121 0.088 0.177 0.024 0.056 0.088 0.159 0.145 0.227s0.1 0.136 0.1 0.153c0 0.018 0.027 0.047 0.059 0.068s0.059 0.053 0.059 0.071c0 0.041 0.649 0.661 0.696 0.661 0.012 0 0.080 0.044 0.156 0.097 0.074 0.053 0.203 0.13 0.283 0.171 0.083 0.038 0.153 0.080 0.162 0.088 0.009 0.012 0.071 0.035 0.139 0.053s0.133 0.047 0.142 0.062c0.009 0.015 0.118 0.047 0.245 0.074 0.124 0.027 0.262 0.065 0.31 0.083l0.080 0.035v0.522c0 0.289-0.012 0.525-0.024 0.525-0.015 0-0.109-0.032-0.209-0.074-0.728-0.298-1.708-0.33-2.495-0.083-1.135 0.357-2.038 1.242-2.415 2.371-0.596 1.775 0.201 3.713 1.864 4.551 0.522 0.262 1.050 0.383 1.672 0.383 0.563 0 0.959-0.074 1.454-0.274l0.153-0.062v4.66h-16.103v-16.1l5.766-0.018 0.118-0.068c0.209-0.121 0.313-0.342 0.268-0.578-0.012-0.056-0.103-0.212-0.212-0.36-0.404-0.543-0.572-1.032-0.572-1.669 0-0.519 0.145-1.009 0.416-1.427 0.605-0.923 1.66-1.392 2.725-1.206z"></path>
        </symbol>
        <symbol id="icon-tic-modal" viewBox="0 0 32 32">
            <path
                d="M0.364 0.068c-0.076 0.036-0.188 0.148-0.248 0.248l-0.116 0.18v15.472c0 12.884 0.008 15.496 0.052 15.604 0.032 0.072 0.132 0.196 0.224 0.28l0.164 0.148h15.544c14.336 0 15.556-0.004 15.684-0.064 0.076-0.036 0.18-0.132 0.236-0.212l0.096-0.144v-15.532c0-14.28-0.004-15.548-0.064-15.672-0.036-0.076-0.132-0.192-0.212-0.256l-0.144-0.12h-15.54c-14.444 0-15.548 0.008-15.676 0.068zM30.6 8.26v6.9h-13.92v-13.76l6.792-0.012c3.732-0.004 6.864-0.012 6.96-0.020l0.168-0.008v6.9zM15.28 8.28v6.88h-5.168c-2.844 0-5.968 0.012-6.94 0.028l-1.772 0.024v-13.812h13.88v6.88zM30.6 23.58v7.020h-13.92v-14l5.852-0.012c3.216-0.004 6.348-0.012 6.96-0.020l1.108-0.008v7.020zM15.28 23.6v7h-6.452c-3.552 0-6.676 0.012-6.94 0.028l-0.488 0.024v-14.052h13.88v7z"></path>
            <path
                d="M22.76 2.456c-2.468 0.436-4.32 2.16-4.9 4.556-0.324 1.328-0.172 2.692 0.44 3.972 1.060 2.228 3.444 3.596 5.88 3.376 2.404-0.216 4.4-1.764 5.184-4.020 0.24-0.7 0.292-1.036 0.296-1.94 0-0.716-0.012-0.872-0.092-1.236-0.252-1.12-0.768-2.096-1.528-2.896-0.84-0.884-1.824-1.448-3.040-1.736-0.352-0.084-0.544-0.1-1.18-0.112-0.516-0.012-0.856 0-1.060 0.036zM24.516 5.164c0.92 0.228 1.724 0.884 2.148 1.736 0.252 0.508 0.344 0.896 0.348 1.46 0.004 0.976-0.34 1.784-1.048 2.448-0.604 0.564-1.248 0.844-2.072 0.9-1.952 0.132-3.62-1.516-3.52-3.468 0.048-0.86 0.32-1.504 0.9-2.124 0.844-0.904 2.044-1.256 3.244-0.952z"></path>
            <path
                d="M3.428 17.644c-0.544 0.128-0.968 0.596-1.048 1.16-0.036 0.252 0.068 0.648 0.24 0.896 0.076 0.108 0.976 1.036 2 2.060l1.86 1.86-1.952 1.96c-2.2 2.208-2.14 2.132-2.14 2.7-0.004 0.244 0.016 0.344 0.108 0.54 0.292 0.644 1.020 0.94 1.692 0.696 0.216-0.080 0.352-0.204 2.2-2.048l1.972-1.964 1.948 1.94c1.52 1.512 1.996 1.964 2.152 2.040 0.168 0.080 0.26 0.096 0.58 0.096 0.336 0 0.404-0.012 0.588-0.112 0.264-0.136 0.464-0.336 0.6-0.6 0.1-0.184 0.112-0.252 0.112-0.588 0-0.32-0.016-0.412-0.096-0.58-0.076-0.156-0.528-0.632-2.040-2.152l-1.94-1.948 1.964-1.972c1.844-1.848 1.968-1.984 2.048-2.2 0.244-0.672-0.052-1.4-0.696-1.692-0.196-0.092-0.296-0.112-0.54-0.108-0.568 0-0.492-0.060-2.7 2.14l-1.96 1.952-1.88-1.88c-1.036-1.036-1.96-1.936-2.060-2-0.188-0.12-0.58-0.244-0.76-0.236-0.056 0.004-0.168 0.020-0.252 0.040z"></path>
        </symbol>
        <symbol id="icon-sword" viewBox="0 0 32 32">
            <path
                d="M20.772 0.109c-0.098 0.036-2.011 2.316-5.997 7.144-3.221 3.898-5.909 7.15-5.971 7.222l-0.114 0.129-1.049-1.044c-1.272-1.261-1.385-1.334-2.161-1.334-0.796 0-0.905 0.067-2.414 1.587-1.494 1.499-1.541 1.572-1.541 2.368 0 0.827-0.021 0.801 2.145 2.973 1.065 1.070 1.882 1.928 1.913 2.016 0.14 0.377 0.186 0.326-2.611 3.128-3.014 3.024-2.895 2.864-2.895 3.748 0 0.822 0.047 0.889 1.489 2.342 1.463 1.468 1.566 1.535 2.388 1.535 0.879 0 0.693 0.145 3.722-2.874 2.828-2.817 2.776-2.771 3.153-2.631 0.088 0.031 0.946 0.848 2.016 1.913 2.171 2.166 2.145 2.145 2.973 2.145 0.796 0 0.905-0.067 2.414-1.587 1.494-1.499 1.541-1.572 1.541-2.368 0-0.775-0.072-0.889-1.334-2.161l-1.044-1.049 0.129-0.114c0.072-0.062 3.324-2.75 7.222-5.966 5.552-4.585 7.098-5.893 7.144-6.017 0.041-0.119 0.057-1.747 0.057-5.485v-5.325l-0.352-0.352-5.34 0.005c-3.396 0-5.397 0.021-5.485 0.052zM27.756 3.241c-1.065 1.075-4.911 4.952-8.551 8.613l-6.612 6.658-2.988-2.988 11.694-14.154 3.376-0.026c1.851-0.016 3.743-0.031 4.198-0.041l0.827-0.010-1.944 1.949zM30.692 3.526c-0.021 0.75-0.036 2.662-0.036 4.26v2.895l-14.18 11.714-2.973-2.973 7.811-7.863c4.301-4.327 8.152-8.204 8.566-8.628 0.408-0.419 0.765-0.76 0.796-0.76s0.036 0.507 0.015 1.354zM5.78 13.565c0.171 0.093 12.588 12.521 12.671 12.681 0.072 0.145 0.072 0.403 0 0.548-0.083 0.16-2.166 2.249-2.331 2.342-0.176 0.093-0.424 0.093-0.6 0-0.171-0.093-12.588-12.521-12.671-12.681-0.078-0.155-0.072-0.408 0.015-0.574 0.083-0.155 2.171-2.244 2.331-2.332 0.145-0.078 0.419-0.072 0.584 0.015zM9.631 25.357c-0.078 0.057-1.318 1.267-2.755 2.693-2.776 2.755-2.724 2.709-3.112 2.605-0.248-0.072-2.394-2.233-2.435-2.456-0.067-0.372-0.088-0.346 2.6-3.050 1.411-1.422 2.621-2.662 2.688-2.761l0.119-0.171 1.52 1.515 1.52 1.52-0.145 0.103z"></path>
        </symbol>
        <symbol id="icon-console-modal" viewBox="0 0 39 32">
            <path
                d="M1.179 0.061c-0.457 0.132-0.997 0.688-1.124 1.151-0.039 0.138-0.050 3.839-0.044 11.241l0.017 11.038 0.127 0.242c0.193 0.352 0.573 0.699 0.925 0.826 0.297 0.116 0.347 0.116 9.424 0.116h9.121l-0.039 0.237c-0.072 0.501-0.105 3.2-0.039 3.729 0.138 1.135 0.463 1.9 1.046 2.484 0.628 0.628 1.41 0.909 2.401 0.859 1.002-0.050 1.427-0.275 2.655-1.399 1.25-1.14 1.482-1.228 3.349-1.228 1.812 0 2.115 0.105 3.172 1.069 0.931 0.854 1.206 1.069 1.564 1.245 0.468 0.231 0.914 0.33 1.46 0.33 1.482 0 2.6-0.837 3.046-2.286 0.22-0.71 0.275-1.416 0.242-3.084-0.061-2.837-0.474-5.051-1.234-6.543-0.391-0.782-1.096-1.614-1.696-2.010l-0.275-0.182-0.055-16.71-0.127-0.237c-0.16-0.303-0.49-0.633-0.793-0.793l-0.237-0.127-16.358-0.011c-9.743-0.005-16.43 0.011-16.529 0.044zM33.487 9.572v7.815l-0.672 0.033c-1.102 0.055-1.807 0.286-2.682 0.887-0.578 0.402-0.755 0.474-1.135 0.474s-0.584-0.083-1.129-0.468c-0.529-0.375-0.991-0.595-1.57-0.749-0.363-0.099-0.6-0.121-1.349-0.127-1.030-0.006-1.289 0.039-1.955 0.352-0.898 0.419-1.652 1.195-2.198 2.258-0.363 0.716-0.545 1.201-0.777 2.12l-0.182 0.716-18.076 0.028v-21.15h31.725v7.81zM25.82 18.814c0.496 0.099 0.892 0.292 1.504 0.716 1.107 0.777 2.231 0.771 3.387-0.022 0.672-0.457 0.964-0.595 1.509-0.705 0.562-0.11 1.531-0.083 1.961 0.066 0.815 0.275 1.586 1.102 2.043 2.192 0.6 1.427 0.876 3.057 0.936 5.568 0.033 1.548-0.011 2.109-0.215 2.726-0.292 0.892-0.771 1.256-1.707 1.311-0.446 0.022-0.501 0.011-0.826-0.138-0.341-0.16-0.578-0.352-1.432-1.157-0.815-0.766-1.603-1.162-2.528-1.283-0.595-0.072-2.313-0.072-2.908 0-0.578 0.077-1.212 0.303-1.696 0.617-0.204 0.138-0.694 0.545-1.091 0.914-0.92 0.859-1.272 1.058-1.906 1.058-0.991 0-1.581-0.468-1.873-1.498-0.127-0.441-0.132-0.529-0.132-2.192 0.006-1.746 0.022-1.977 0.253-3.497 0.363-2.357 1.206-3.91 2.434-4.511 0.16-0.083 0.402-0.165 0.534-0.193 0.408-0.083 1.3-0.066 1.751 0.028z"></path>
            <path
                d="M4.803 3.635c-0.264 0.165-0.397 0.413-0.397 0.771 0 0.551 0.33 0.881 0.881 0.881s0.881-0.33 0.881-0.881c0-0.551-0.33-0.881-0.881-0.881-0.204 0-0.364 0.033-0.485 0.11z"></path>
            <path
                d="M7.446 3.635c-0.264 0.165-0.397 0.413-0.397 0.771 0 0.551 0.33 0.881 0.881 0.881s0.881-0.33 0.881-0.881c0-0.551-0.33-0.881-0.881-0.881-0.204 0-0.364 0.033-0.485 0.11z"></path>
            <path
                d="M10.090 3.635c-0.264 0.165-0.397 0.413-0.397 0.771 0 0.551 0.33 0.881 0.881 0.881s0.881-0.33 0.881-0.881c0-0.551-0.33-0.881-0.881-0.881-0.204 0-0.364 0.033-0.485 0.11z"></path>
            <path
                d="M27.715 3.635c-0.264 0.165-0.397 0.413-0.397 0.771s0.132 0.606 0.397 0.771c0.165 0.099 0.281 0.11 1.366 0.11 1.322 0 1.427-0.028 1.652-0.397 0.149-0.248 0.149-0.721 0-0.969-0.226-0.369-0.33-0.397-1.652-0.397-1.085 0-1.201 0.011-1.366 0.11z"></path>
            <path
                d="M3.921 7.16c-0.264 0.165-0.397 0.413-0.397 0.771s0.132 0.606 0.397 0.771c0.182 0.11 0.308 0.11 13.703 0.11s13.521 0 13.703-0.11c0.264-0.165 0.397-0.413 0.397-0.771s-0.132-0.606-0.397-0.771c-0.182-0.11-0.308-0.11-13.703-0.11s-13.521 0-13.703 0.11z"></path>
            <path
                d="M18.578 9.925c-0.149 0.171-2.605 6.334-2.605 6.543 0 0.325 0.369 0.496 0.644 0.303 0.132-0.094 2.66-6.35 2.66-6.587 0-0.33-0.474-0.501-0.699-0.259z"></path>
            <path
                d="M13.318 12.067c-0.859 0.518-1.603 0.98-1.652 1.030-0.127 0.11-0.127 0.408 0 0.551 0.121 0.138 3.222 1.994 3.338 1.994 0.165 0 0.358-0.127 0.419-0.281 0.127-0.297 0.017-0.397-1.338-1.212-0.688-0.413-1.267-0.76-1.278-0.777-0.011-0.011 0.556-0.364 1.267-0.782 1.46-0.87 1.564-0.975 1.289-1.322-0.215-0.275-0.336-0.231-2.043 0.799z"></path>
            <path
                d="M19.883 11.236c-0.066 0.066-0.11 0.182-0.11 0.297 0 0.242 0.039 0.27 1.46 1.107 0.606 0.358 1.124 0.666 1.146 0.688 0.028 0.022-0.534 0.391-1.245 0.821-0.71 0.424-1.311 0.815-1.327 0.865-0.017 0.044-0.033 0.154-0.033 0.242 0 0.176 0.22 0.386 0.408 0.386 0.149 0 3.31-1.895 3.42-2.049 0.121-0.176 0.105-0.297-0.066-0.479-0.088-0.088-0.837-0.567-1.674-1.074-1.608-0.964-1.757-1.024-1.977-0.804z"></path>
            <path
                d="M32.848 21.75c-0.457 0.275-0.352 0.991 0.171 1.162 0.248 0.083 0.573-0.039 0.733-0.275 0.143-0.215 0.154-0.386 0.033-0.639-0.16-0.341-0.6-0.457-0.936-0.248z"></path>
            <path
                d="M24.587 22.053c-0.16 0.16-0.187 0.226-0.187 0.452 0 0.149-0.017 0.363-0.033 0.474l-0.039 0.209h-0.408c-0.485 0-0.683 0.094-0.821 0.375-0.154 0.33 0 0.727 0.336 0.87 0.105 0.044 0.347 0.077 0.545 0.077 0.408 0 0.419 0.017 0.419 0.567 0 0.397 0.132 0.617 0.424 0.694 0.281 0.077 0.49 0.017 0.677-0.198 0.154-0.171 0.165-0.215 0.165-0.622v-0.441h0.391c0.65 0 0.931-0.215 0.931-0.71 0-0.171-0.039-0.27-0.16-0.402-0.154-0.176-0.182-0.182-0.65-0.209l-0.485-0.028-0.028-0.441c-0.033-0.496-0.099-0.65-0.33-0.771-0.275-0.143-0.534-0.11-0.749 0.105z"></path>
            <path
                d="M31.416 23.155c-0.154 0.154-0.187 0.231-0.187 0.413 0 0.435 0.242 0.694 0.655 0.694 0.27 0 0.49-0.149 0.595-0.397 0.116-0.281 0.055-0.523-0.182-0.727-0.154-0.138-0.242-0.171-0.441-0.171-0.215 0-0.281 0.028-0.441 0.187z"></path>
            <path
                d="M34.137 23.094c-0.435 0.369-0.314 0.986 0.226 1.146 0.176 0.050 0.242 0.044 0.419-0.039 0.226-0.105 0.413-0.363 0.413-0.562 0-0.209-0.165-0.507-0.336-0.589-0.231-0.121-0.545-0.105-0.721 0.044z"></path>
            <path
                d="M32.837 24.399c-0.215 0.132-0.303 0.341-0.27 0.622 0.105 0.799 1.278 0.699 1.278-0.11 0-0.215-0.028-0.27-0.204-0.435-0.248-0.22-0.518-0.248-0.804-0.077z"></path>
        </symbol>
        <symbol id="logo-icon" viewBox="0 0 34 32">
        <path fill="" style="" d="M8.8 9.142c-0.221 0-0.421 0.090-0.566 0.234l-8 8c-0.145 0.145-0.234 0.345-0.234 0.566s0.089 0.421 0.234 0.566l8 8c0.145 0.145 0.345 0.234 0.566 0.234s0.421-0.090 0.566-0.234v0c0.145-0.145 0.234-0.345 0.234-0.566s-0.090-0.421-0.234-0.566l-7.434-7.434 7.434-7.434c0.145-0.145 0.234-0.345 0.234-0.566s-0.090-0.421-0.234-0.566v0c-0.145-0.145-0.345-0.234-0.566-0.234v0z"></path>
        <path fill="" style="" d="M24.234 9.377c-0.145 0.145-0.234 0.345-0.234 0.566s0.090 0.421 0.234 0.566l7.434 7.434-7.434 7.434c-0.145 0.145-0.234 0.345-0.234 0.566s0.090 0.421 0.234 0.566v0c0.145 0.145 0.345 0.234 0.566 0.234s0.421-0.090 0.566-0.234l8-8c0.145-0.145 0.234-0.345 0.234-0.566s-0.090-0.421-0.234-0.566l-8-8c-0.145-0.145-0.345-0.234-0.566-0.234s-0.421 0.090-0.566 0.234v0z"></path>
        <path fill="" style="" d="M19.628 4.034l-6.869 25.637c-0.093 0.348-0.451 0.555-0.8 0.462s-0.555-0.451-0.462-0.8l6.869-25.637c0.093-0.348 0.451-0.555 0.8-0.462s0.555 0.451 0.462 0.8z"></path>
        <path fill="#d9d9d9" style="fill: var(--color3, #d9d9d9)" d="M18.366 3.696c0.093-0.348 0.451-0.555 0.8-0.462s0.555 0.451 0.462 0.8l-0.837 3.123-1.262-0.338 0.837-3.123z"></path>
        <path fill="" style="" d="M20.659 5.231c-0.031-0.009-0.067-0.014-0.104-0.014-0.184 0-0.339 0.124-0.386 0.294l-0.001 0.003c-0.009 0.031-0.014 0.067-0.014 0.104 0 0.184 0.124 0.339 0.294 0.386l0.003 0.001 2.523 0.675c0.031 0.009 0.067 0.014 0.104 0.014 0.184 0 0.339-0.124 0.386-0.294l0.001-0.003c0.009-0.031 0.013-0.066 0.013-0.103 0-0.184-0.124-0.339-0.293-0.386l-0.003-0.001z"></path>
        <path fill="" style="" d="M14.352 3.541c-0.031-0.009-0.067-0.014-0.104-0.014-0.185 0-0.34 0.125-0.386 0.295l-0.001 0.003c-0.009 0.031-0.013 0.066-0.013 0.103 0 0.184 0.124 0.339 0.293 0.386l0.003 0.001 2.523 0.677c0.031 0.009 0.067 0.014 0.104 0.014 0.184 0 0.339-0.124 0.386-0.294l0.001-0.003c0.009-0.031 0.014-0.067 0.014-0.104 0-0.184-0.124-0.339-0.294-0.386l-0.003-0.001z"></path>
        <path fill="" style="" d="M15.516 0.623c-0.12 0.071-0.199 0.199-0.199 0.346 0 0.074 0.020 0.143 0.055 0.203l-0.001-0.002 1.311 2.247c0.071 0.12 0.199 0.199 0.346 0.199 0.074 0 0.143-0.020 0.203-0.055l-0.002 0.001c0.119-0.071 0.198-0.199 0.198-0.345 0-0.074-0.020-0.144-0.055-0.203l0.001 0.002-1.309-2.248c-0.071-0.119-0.199-0.198-0.345-0.198-0.074 0-0.144 0.020-0.203 0.055l0.002-0.001z"></path>
        <path fill="" style="" d="M16.433 5.441c-0.032-0.009-0.069-0.015-0.107-0.015-0.073 0-0.141 0.019-0.199 0.053l0.002-0.001-2.258 1.292c-0.121 0.070-0.201 0.199-0.201 0.347 0 0.073 0.020 0.141 0.054 0.2l-0.001-0.002c0.070 0.121 0.199 0.201 0.347 0.201 0.073 0 0.141-0.020 0.2-0.054l-0.002 0.001 2.259-1.291c0.121-0.070 0.201-0.199 0.201-0.347 0-0.073-0.020-0.141-0.054-0.2l0.001 0.002c-0.053-0.091-0.138-0.158-0.239-0.187l-0.003-0.001z"></path>
        <path fill="" style="" d="M20.019 6.523c-0.119 0.071-0.198 0.199-0.198 0.345 0 0.074 0.020 0.144 0.055 0.203l-0.001-0.002 1.309 2.248c0.071 0.12 0.199 0.199 0.346 0.199 0.075 0 0.145-0.021 0.204-0.056l-0.002 0.001c0.119-0.071 0.198-0.199 0.198-0.345 0-0.074-0.020-0.144-0.055-0.203l0.001 0.002-1.311-2.248c-0.071-0.119-0.199-0.198-0.345-0.198-0.074 0-0.144 0.020-0.203 0.055l0.002-0.001z"></path>
        <path fill="" style="" d="M23.283 2.583c-0.032-0.009-0.068-0.014-0.106-0.014-0.072 0-0.14 0.019-0.199 0.053l0.002-0.001-2.258 1.292c-0.122 0.070-0.202 0.2-0.202 0.348 0 0.073 0.019 0.141 0.053 0.2l-0.001-0.002c0.070 0.121 0.199 0.202 0.347 0.202 0.073 0 0.142-0.020 0.201-0.054l-0.002 0.001 2.258-1.291c0.121-0.070 0.201-0.199 0.201-0.347 0-0.073-0.020-0.141-0.054-0.2l0.001 0.002c-0.053-0.091-0.138-0.158-0.239-0.187l-0.003-0.001z"></path>
    </symbol>
    <symbol id="icon-moon" viewBox="0 0 32 32">
    <path fill="#fff" style="fill: var(--color1, #fff)" d="M16 28q-5 0-8.5-3.5t-3.5-8.5 3.5-8.5 8.5-3.5q0.467 0 0.917 0.033t0.883 0.1q-1.367 0.967-2.183 2.517t-0.817 3.35q0 3 2.1 5.1t5.1 2.1q1.833 0 3.367-0.817t2.5-2.183q0.067 0.433 0.1 0.883t0.033 0.917q0 5-3.5 8.5t-8.5 3.5zM16 25.333q2.933 0 5.267-1.617t3.4-4.217q-0.667 0.167-1.333 0.267t-1.333 0.1q-4.1 0-6.983-2.883t-2.883-6.983q0-0.667 0.1-1.333t0.267-1.333q-2.6 1.067-4.217 3.4t-1.617 5.267q0 3.867 2.733 6.6t6.6 2.733z"></path>
    </symbol>
    <symbol id="icon-sun" viewBox="0 0 32 32">
    <path d="M14.667 6.667v-5.333h2.667v5.333h-2.667zM23.533 10.333l-1.833-1.833 3.733-3.833 1.867 1.9-3.767 3.767zM25.333 17.333v-2.667h5.333v2.667h-5.333zM14.667 30.667v-5.333h2.667v5.333h-2.667zM8.467 10.267l-3.8-3.7 1.9-1.867 3.767 3.767-1.867 1.8zM25.4 27.333l-3.7-3.833 1.8-1.8 3.8 3.667-1.9 1.967zM1.333 17.333v-2.667h5.333v2.667h-5.333zM6.567 27.333l-1.867-1.9 3.733-3.733 0.967 0.9 0.967 0.933-3.8 3.8zM16 24q-3.333 0-5.667-2.333t-2.333-5.667 2.333-5.667 5.667-2.333 5.667 2.333 2.333 5.667-2.333 5.667-5.667 2.333zM16 21.333q2.2 0 3.767-1.567t1.567-3.767-1.567-3.767-3.767-1.567-3.767 1.567-1.567 3.767 1.567 3.767 3.767 1.567z"></path>
    </symbol>
    <symbol id="icon-drop" viewBox="0 0 32 32">
    <path d="M29.755 10.3l-1.919-1.899c-0.279-0.276-0.724-0.283-0.993-0.016l-10.785 10.273-11.003-10.705c-0.273-0.27-0.723-0.264-1.003 0.015l-1.937 1.918c-0.282 0.28-0.289 0.724-0.016 0.994l13.468 13.104c0.272 0.27 0.721 0.264 1.003-0.016l1.937-1.918c0.044-0.044 0.081-0.092 0.112-0.143l11.151-10.623c0.27-0.267 0.264-0.709-0.015-0.984z"></path>
    </symbol>
    </defs>
</svg>